<?xml version="1.0" encoding="UTF-8" standalone="no"?>
<!-- Created with Inkscape (http://www.inkscape.org/) -->

<svg
   xmlns:dc="http://purl.org/dc/elements/1.1/"
   xmlns:cc="http://creativecommons.org/ns#"
   xmlns:rdf="http://www.w3.org/1999/02/22-rdf-syntax-ns#"
   xmlns:svg="http://www.w3.org/2000/svg"
   xmlns="http://www.w3.org/2000/svg"
   xmlns:sodipodi="http://sodipodi.sourceforge.net/DTD/sodipodi-0.dtd"
   xmlns:inkscape="http://www.inkscape.org/namespaces/inkscape"
   width="30.48mm"
   height="128.5mm"
   viewBox="0 0 30.480002 128.50002"
   version="1.1"
   id="svg8"
   inkscape:version="0.92.3 (2405546, 2018-03-11)"
   sodipodi:docname="Arpegiator.svg">
  <defs
     id="defs2" />
  <sodipodi:namedview
     id="base"
     pagecolor="#ffffff"
     bordercolor="#666666"
     borderopacity="1.0"
     inkscape:pageopacity="0.0"
     inkscape:pageshadow="2"
     inkscape:zoom="1"
     inkscape:cx="-36.100003"
     inkscape:cy="244.49466"
     inkscape:document-units="mm"
     inkscape:current-layer="layer3"
     showgrid="false"
     units="mm"
     inkscape:snap-bbox="true"
     inkscape:snap-page="true"
     inkscape:bbox-nodes="false"
     inkscape:snap-bbox-edge-midpoints="false"
     inkscape:window-width="950"
     inkscape:window-height="667"
     inkscape:window-x="405"
     inkscape:window-y="39"
     inkscape:window-maximized="0"
     inkscape:snap-bbox-midpoints="true"
     inkscape:snap-nodes="false"
     inkscape:snap-text-baseline="true"
     inkscape:lockguides="false"
     showguides="false">
    <inkscape:grid
       type="xygrid"
       id="grid125" />
  </sodipodi:namedview>
  <metadata
     id="metadata5">
    <rdf:RDF>
      <cc:Work
         rdf:about="">
        <dc:format>image/svg+xml</dc:format>
        <dc:type
           rdf:resource="http://purl.org/dc/dcmitype/StillImage" />
        <dc:title />
      </cc:Work>
    </rdf:RDF>
  </metadata>
  <g
     inkscape:label="Layer 1"
     inkscape:groupmode="layer"
     id="layer1"
     transform="translate(0,-168.49998)"
     style="display:inline">
    <rect
       style="display:inline;opacity:1;vector-effect:none;fill:#e6e6e6;fill-opacity:1;fill-rule:evenodd;stroke:none;stroke-width:0.64935839;stroke-linecap:butt;stroke-linejoin:miter;stroke-miterlimit:4;stroke-dasharray:none;stroke-dashoffset:0;stroke-opacity:1;paint-order:normal"
       id="rect420"
       width="30.48"
       height="128.5"
       x="0.26458335"
       y="168.76454" />
    <flowRoot
       xml:space="preserve"
       id="flowRoot109"
       style="font-style:normal;font-weight:normal;font-size:40px;line-height:1.25;font-family:sans-serif;letter-spacing:0px;word-spacing:0px;fill:#000000;fill-opacity:1;stroke:none"><flowRegion
         id="flowRegion111"><rect
           id="rect113"
           width="124"
           height="73"
           x="177"
           y="292.66928" /></flowRegion><flowPara
         id="flowPara115" /></flowRoot>    <flowRoot
       xml:space="preserve"
       id="flowRoot117"
       style="font-style:normal;font-weight:normal;font-size:40px;line-height:1.25;font-family:sans-serif;letter-spacing:0px;word-spacing:0px;fill:#000000;fill-opacity:1;stroke:none"
       transform="matrix(0.26458333,0,0,0.26458333,0,168.49998)"><flowRegion
         id="flowRegion119"><rect
           id="rect121"
           width="171"
           height="96"
           x="163"
           y="131.6693" /></flowRegion><flowPara
         id="flowPara123" /></flowRoot>    <flowRoot
       xml:space="preserve"
       id="flowRoot125"
       style="font-style:normal;font-weight:normal;font-size:10.66666698px;line-height:1.25;font-family:sans-serif;letter-spacing:0px;word-spacing:0px;fill:#000000;fill-opacity:1;stroke:none"
       transform="matrix(0.26458333,0,0,0.26458333,0,168.49998)"><flowRegion
         id="flowRegion127"><rect
           id="rect129"
           width="53"
           height="23"
           x="183"
           y="120.66929" /></flowRegion><flowPara
         id="flowPara131" /></flowRoot>    <flowRoot
       xml:space="preserve"
       id="flowRoot133"
       style="font-style:normal;font-weight:normal;font-size:10.66666698px;line-height:1.25;font-family:sans-serif;letter-spacing:0px;word-spacing:0px;fill:#000000;fill-opacity:1;stroke:none"
       transform="matrix(0.26458333,0,0,0.26458333,0,168.49998)"><flowRegion
         id="flowRegion135"><rect
           id="rect137"
           width="20"
           height="12"
           x="222"
           y="177.6693" /></flowRegion><flowPara
         id="flowPara139" /></flowRoot>    <flowRoot
       xml:space="preserve"
       id="flowRoot141"
       style="font-style:normal;font-weight:normal;font-size:10.66666698px;line-height:1.25;font-family:sans-serif;letter-spacing:0px;word-spacing:0px;fill:#000000;fill-opacity:1;stroke:none"
       transform="matrix(0.26458333,0,0,0.26458333,1.5875,169.55831)"><flowRegion
         id="flowRegion143"><rect
           id="rect145"
           width="37"
           height="15"
           x="69"
           y="376.66928" /></flowRegion><flowPara
         id="flowPara147" /></flowRoot>    <flowRoot
       xml:space="preserve"
       id="flowRoot149"
       style="font-style:normal;font-weight:normal;font-size:10.66666698px;line-height:1.25;font-family:sans-serif;letter-spacing:0px;word-spacing:0px;fill:#000000;fill-opacity:1;stroke:none"
       transform="matrix(0.26458333,0,0,0.26458333,2.1166667,168.2354)"><flowRegion
         id="flowRegion151"><rect
           id="rect153"
           width="31"
           height="15"
           x="69"
           y="337.66928" /></flowRegion><flowPara
         id="flowPara157" /></flowRoot>    <flowRoot
       xml:space="preserve"
       id="flowRoot159"
       style="font-style:normal;font-weight:normal;font-size:10.66666698px;line-height:1.25;font-family:sans-serif;letter-spacing:0px;word-spacing:0px;fill:#000000;fill-opacity:1;stroke:none"
       transform="matrix(0.26458333,0,0,0.26458333,0,168.49998)"><flowRegion
         id="flowRegion161"><rect
           id="rect163"
           width="35"
           height="11"
           x="68"
           y="427.66928" /></flowRegion><flowPara
         id="flowPara165">RootR</flowPara></flowRoot>    <flowRoot
       xml:space="preserve"
       id="flowRoot167"
       style="font-style:normal;font-weight:normal;font-size:13.33333397px;line-height:1.25;font-family:sans-serif;letter-spacing:0px;word-spacing:0px;fill:#000000;fill-opacity:1;stroke:none"
       transform="matrix(0.26458333,0,0,0.26458333,4.2333333,170.35206)"><flowRegion
         id="flowRegion169"
         style="font-size:13.33333397px"><rect
           id="rect171"
           width="52"
           height="22"
           x="51"
           y="416.66928"
           style="font-size:13.33333397px" /></flowRegion><flowPara
         id="flowPara173" /></flowRoot>    <flowRoot
       xml:space="preserve"
       id="flowRoot175"
       style="font-style:normal;font-weight:normal;font-size:16px;line-height:1.25;font-family:sans-serif;letter-spacing:0px;word-spacing:0px;fill:#000000;fill-opacity:1;stroke:none"
       transform="matrix(0.26458333,0,0,0.26458333,16.404167,135.16248)"><flowRegion
         id="flowRegion177"
         style="font-size:16px;fill:#000000"><rect
           id="rect179"
           width="0.9999994"
           height="1.9999995"
           x="11"
           y="322.66928"
           style="font-size:16px;fill:#000000" /></flowRegion><flowPara
         id="flowPara181" /></flowRoot>    <flowRoot
       xml:space="preserve"
       id="flowRoot183"
       style="font-style:normal;font-weight:normal;font-size:10.66666698px;line-height:1.25;font-family:sans-serif;letter-spacing:0px;word-spacing:0px;fill:#000000;fill-opacity:1;stroke:none"><flowRegion
         id="flowRegion185"><rect
           id="rect187"
           width="111"
           height="72"
           x="-129"
           y="127.66929" /></flowRegion><flowPara
         id="flowPara189" /></flowRoot>    <text
       xml:space="preserve"
       style="font-style:normal;font-weight:normal;font-size:3.52777767px;line-height:1.25;font-family:sans-serif;letter-spacing:0px;word-spacing:0px;fill:#ff0000;fill-opacity:1;stroke:none;stroke-width:0.26458332"
       x="-3.5527137e-15"
       y="273.9812"
       id="text3906"><tspan
         sodipodi:role="line"
         id="tspan3904"
         x="-3.5527137e-15"
         y="277.10245"
         style="font-size:3.52777767px;fill:#ff0000;stroke-width:0.26458332" /></text>
    <rect
       style="fill:#000000;stroke-width:0.13817421"
       id="rect3908"
       width="10.583334"
       height="15.875024"
       x="16.933334"
       y="270.32156"
       ry="1.5502768e-14" />
    <flowRoot
       xml:space="preserve"
       id="flowRoot110"
       style="font-style:normal;font-weight:normal;font-size:16px;line-height:1.25;font-family:sans-serif;letter-spacing:0px;word-spacing:0px;fill:#000000;fill-opacity:1;stroke:none"
       transform="matrix(0.26458333,0,0,0.26458333,0,168.49998)"><flowRegion
         id="flowRegion112"><rect
           id="rect114"
           width="11"
           height="23"
           x="-145"
           y="5.6692915" /></flowRegion><flowPara
         id="flowPara116">My</flowPara></flowRoot>    <rect
       style="fill:#aa0000;fill-opacity:1;fill-rule:evenodd;stroke:#cccccc;stroke-width:0.23849091"
       id="rect80"
       width="1.7194251"
       height="128.87817"
       x="-29.752209"
       y="168.66402"
       ry="7.0391833e-14"
       transform="scale(-1,1)" />
  </g>
  <g
     inkscape:groupmode="layer"
     id="layer3"
     inkscape:label="text"
     style="display:inline">
    <g
       transform="scale(0.26458333)"
       style="font-style:normal;font-weight:normal;font-size:16px;line-height:1.25;font-family:sans-serif;letter-spacing:0px;word-spacing:0px;fill:#000000;fill-opacity:1;stroke:none"
       id="flowRoot96" />
    <g
       style="font-style:normal;font-weight:normal;font-size:4.23333311px;line-height:1.25;font-family:sans-serif;letter-spacing:0px;word-spacing:0px;fill:#000000;fill-opacity:1;stroke:none;stroke-width:0.26458332"
       id="text108" />
    <g
       aria-label="Out"
       style="font-style:normal;font-variant:normal;font-weight:bold;font-stretch:normal;font-size:3.52777767px;line-height:1.25;font-family:sans-serif;-inkscape-font-specification:'sans-serif Bold';letter-spacing:0px;word-spacing:0px;fill:#ffffff;fill-opacity:1;stroke:none;stroke-width:0.26458332"
       id="text180"
       transform="translate(-1.0054167,-7.9685035)">
      <path
         d="m 20.870733,111.54565 q -0.303169,0 -0.470256,0.22393 -0.167087,0.22393 -0.167087,0.63045 0,0.4048 0.167087,0.62873 0.167087,0.22393 0.470256,0.22393 0.304891,0 0.471978,-0.22393 0.167087,-0.22393 0.167087,-0.62873 0,-0.40652 -0.167087,-0.63045 -0.167087,-0.22393 -0.471978,-0.22393 z m 0,-0.4806 q 0.620117,0 0.971516,0.35485 0.3514,0.35484 0.3514,0.98013 0,0.62356 -0.3514,0.97841 -0.351399,0.35484 -0.971516,0.35484 -0.618395,0 -0.971517,-0.35484 -0.3514,-0.35485 -0.3514,-0.97841 0,-0.62529 0.3514,-0.98013 0.353122,-0.35485 0.971517,-0.35485 z"
         style="fill:#ffffff;stroke-width:0.26458332"
         id="path104"
         inkscape:connector-curvature="0" />
      <path
         d="m 22.644957,112.9323 v -1.17823 h 0.620117 v 0.19293 q 0,0.15675 -0.0017,0.39446 -0.0017,0.23599 -0.0017,0.31523 0,0.23254 0.01206,0.3359 0.01206,0.10163 0.04134,0.14813 0.0379,0.0603 0.09818,0.093 0.06201,0.0327 0.141249,0.0327 0.192925,0 0.303168,-0.14814 0.110243,-0.14814 0.110243,-0.41169 v -0.95257 h 0.616672 v 1.92926 h -0.616672 v -0.27906 q -0.139526,0.16881 -0.296278,0.24977 -0.155029,0.0792 -0.342787,0.0792 -0.334174,0 -0.509874,-0.20498 -0.173977,-0.20499 -0.173977,-0.596 z"
         style="fill:#ffffff;stroke-width:0.26458332"
         id="path106"
         inkscape:connector-curvature="0" />
      <path
         d="m 25.854063,111.2063 v 0.54777 h 0.63562 v 0.44098 h -0.63562 v 0.81821 q 0,0.13435 0.0534,0.18259 0.0534,0.0465 0.211873,0.0465 h 0.316949 v 0.44098 h -0.528822 q -0.36518,0 -0.518487,-0.15159 -0.151584,-0.1533 -0.151584,-0.51848 v -0.81821 h -0.306613 v -0.44098 h 0.306613 v -0.54777 z"
         style="fill:#ffffff;stroke-width:0.26458332"
         id="path108"
         inkscape:connector-curvature="0" />
    </g>
    <g
       aria-label="Attack"
       style="font-style:normal;font-variant:normal;font-weight:bold;font-stretch:normal;font-size:3.52777767px;line-height:1.25;font-family:sans-serif;-inkscape-font-specification:'sans-serif Bold';letter-spacing:0px;word-spacing:0px;display:inline;fill:#000000;fill-opacity:1;stroke:none;stroke-width:0.26458332"
       id="text142"
       transform="translate(-23.283333)">
      <path
         d="M 10.882127,24.836216 H 9.8451531 l -0.163642,0.468533 H 9.0148852 L 9.967454,22.732985 h 0.790649 l 0.952569,2.571764 H 11.044046 Z M 10.010518,24.35907 h 0.704522 l -0.3514,-1.023193 z"
         style="stroke-width:0.26458332"
         id="path80"
         inkscape:connector-curvature="0" />
      <path
         d="m 12.69597,22.827725 v 0.54777 h 0.63562 v 0.440972 h -0.63562 v 0.81821 q 0,0.134359 0.0534,0.182591 0.0534,0.04651 0.211873,0.04651 h 0.316949 v 0.440973 H 12.74937 q -0.36518,0 -0.518487,-0.151585 -0.151584,-0.153306 -0.151584,-0.518487 v -0.81821 h -0.306614 v -0.440972 h 0.306614 v -0.54777 z"
         style="stroke-width:0.26458332"
         id="path82"
         inkscape:connector-curvature="0" />
      <path
         d="m 14.384067,22.827725 v 0.54777 h 0.63562 v 0.440972 h -0.63562 v 0.81821 q 0,0.134359 0.0534,0.182591 0.0534,0.04651 0.211873,0.04651 h 0.316949 v 0.440973 h -0.528822 q -0.36518,0 -0.518487,-0.151585 -0.151584,-0.153306 -0.151584,-0.518487 v -0.81821 h -0.306614 v -0.440972 h 0.306614 v -0.54777 z"
         style="stroke-width:0.26458332"
         id="path84"
         inkscape:connector-curvature="0" />
      <path
         d="m 16.263366,24.436584 q -0.192925,0 -0.291111,0.06546 -0.09646,0.06546 -0.09646,0.192926 0,0.117133 0.07751,0.184312 0.07924,0.06546 0.218764,0.06546 0.173977,0 0.292833,-0.124023 0.118856,-0.125746 0.118856,-0.313504 v -0.07062 z M 17.2056,24.204041 v 1.100708 h -0.62184 v -0.285943 q -0.124024,0.175699 -0.279053,0.256659 -0.155029,0.07924 -0.377238,0.07924 -0.299723,0 -0.487481,-0.173977 -0.186035,-0.1757 -0.186035,-0.454752 0,-0.339342 0.232544,-0.497817 0.234266,-0.158474 0.733805,-0.158474 h 0.363458 v -0.04823 q 0,-0.146417 -0.115411,-0.213596 -0.115411,-0.0689 -0.360012,-0.0689 -0.198093,0 -0.368626,0.03962 -0.170532,0.03962 -0.316948,0.118856 V 23.42718 q 0.198093,-0.04823 0.397908,-0.07235 0.199816,-0.02584 0.399631,-0.02584 0.521932,0 0.752754,0.206706 0.232544,0.204983 0.232544,0.668349 z"
         style="stroke-width:0.26458332"
         id="path86"
         inkscape:connector-curvature="0" />
      <path
         d="m 19.341559,23.435784 v 0.502984 q -0.125746,-0.08613 -0.253215,-0.127468 -0.125746,-0.04134 -0.261827,-0.04134 -0.258382,0 -0.403076,0.151584 -0.142972,0.149861 -0.142972,0.420301 0,0.27044 0.142972,0.422025 0.144694,0.149861 0.403076,0.149861 0.144694,0 0.273885,-0.04306 0.130914,-0.04306 0.241157,-0.127469 v 0.504706 q -0.144694,0.0534 -0.294556,0.07924 -0.148139,0.02756 -0.298001,0.02756 -0.521932,0 -0.816487,-0.266994 -0.294556,-0.268718 -0.294556,-0.745864 0,-0.477145 0.294556,-0.74414 0.294555,-0.268718 0.816487,-0.268718 0.151585,0 0.298001,0.02756 0.148139,0.02584 0.294556,0.07924 z"
         style="stroke-width:0.26458332"
         id="path88"
         inkscape:connector-curvature="0" />
      <path
         d="m 19.877271,22.624464 h 0.616672 v 1.458998 l 0.70969,-0.707967 h 0.716579 l -0.942233,0.88539 1.016303,1.043864 h -0.747586 l -0.752753,-0.80443 v 0.80443 h -0.616672 z"
         style="stroke-width:0.26458332"
         id="path90"
         inkscape:connector-curvature="0" />
    </g>
    <g
       aria-label="A/R"
       style="font-style:normal;font-variant:normal;font-weight:bold;font-stretch:normal;font-size:4.23333311px;line-height:1.25;font-family:sans-serif;-inkscape-font-specification:'sans-serif Bold';letter-spacing:0px;word-spacing:0px;display:inline;fill:#000000;fill-opacity:1;stroke:none;stroke-width:0.26458332"
       id="text138"
       transform="translate(-24.870833,-0.26458333)">
      <path
         d="m 13.75792,10.680835 h -1.244369 l -0.19637,0.562239 H 11.51723 l 1.143082,-3.086116 h 0.94878 l 1.143082,3.086116 H 13.952223 Z M 12.711989,10.10826 h 0.845426 l -0.42168,-1.2278319 z"
         style="stroke-width:0.26458332"
         id="path93"
         inkscape:connector-curvature="0" />
      <path
         d="m 15.85805,8.156958 h 0.458886 l -1.089339,3.478857 h -0.456819 z"
         style="stroke-width:0.26458332"
         id="path95"
         inkscape:connector-curvature="0" />
      <path
         d="m 17.836224,9.5253499 q 0.250113,0 0.3576,-0.093018 0.109554,-0.093018 0.109554,-0.3059244 0,-0.2108399 -0.109554,-0.3017904 -0.107487,-0.09095 -0.3576,-0.09095 H 17.50136 V 9.5253499 Z M 17.50136,10.075187 v 1.167887 H 16.705543 V 8.156958 h 1.21543 q 0.609782,0 0.892969,0.2046387 0.285253,0.2046387 0.285253,0.6469889 0,0.3059245 -0.148828,0.5022949 -0.146761,0.1963704 -0.444417,0.289388 0.163298,0.037207 0.291455,0.1694987 0.130225,0.1302248 0.262516,0.3968748 l 0.432015,0.876432 h -0.847493 l -0.376205,-0.766878 q -0.113688,-0.23151 -0.23151,-0.31626 -0.115755,-0.08475 -0.310059,-0.08475 z"
         style="stroke-width:0.26458332"
         id="path97"
         inkscape:connector-curvature="0" />
    </g>
    <g
       aria-label="Gate"
       inkscape:transform-center-x="-31.485422"
       inkscape:transform-center-y="-48.947926"
       style="font-style:normal;font-variant:normal;font-weight:bold;font-stretch:normal;font-size:4.23333311px;line-height:1.25;font-family:sans-serif;-inkscape-font-specification:'sans-serif Bold';letter-spacing:0px;word-spacing:0px;display:inline;fill:#000000;fill-opacity:1;stroke:none;stroke-width:0.26458332"
       id="text142-5"
       transform="translate(-14.552083,-0.26458333)">
      <path
         d="m 3.8506359,105.73448 q -0.2976562,0.14469 -0.6180501,0.21704 -0.3203939,0.0724 -0.6614583,0.0724 -0.7710123,0 -1.2216308,-0.42995 -0.45061846,-0.43202 -0.45061846,-1.16996 0,-0.7462 0.45888666,-1.17409 0.4588867,-0.42788 1.2567708,-0.42788 0.3079915,0 0.5891113,0.0579 0.2831868,0.0579 0.5333008,0.17157 v 0.63872 q -0.2583822,-0.14676 -0.5146973,-0.21911 -0.254248,-0.0724 -0.5105631,-0.0724 -0.4754232,0 -0.7338053,0.26665 -0.2563151,0.26459 -0.2563151,0.75861 0,0.4899 0.2480469,0.75655 0.2480468,0.26665 0.7048665,0.26665 0.1240234,0 0.2294433,-0.0145 0.107487,-0.0165 0.1922363,-0.0496 v -0.59945 H 2.6104016 v -0.5333 h 1.2402343 z"
         style="font-size:4.23333311px;stroke-width:0.26458332"
         id="path100"
         inkscape:connector-curvature="0" />
      <path
         d="m 5.553891,104.92212 q -0.2315104,0 -0.3493327,0.0785 -0.1157552,0.0786 -0.1157552,0.23151 0,0.14056 0.093018,0.22118 0.095085,0.0785 0.2625162,0.0785 0.2087728,0 0.3513998,-0.14883 0.1426269,-0.1509 0.1426269,-0.37621 v -0.0847 z m 1.1306802,-0.27905 v 1.32085 H 5.9383636 v -0.34313 q -0.1488281,0.21084 -0.3348633,0.30799 -0.1860351,0.0951 -0.4526855,0.0951 -0.3596679,0 -0.5849772,-0.20878 -0.2232421,-0.21084 -0.2232421,-0.5457 0,-0.40721 0.2790527,-0.59738 0.2811197,-0.19017 0.8805663,-0.19017 h 0.4361491 v -0.0579 q 0,-0.1757 -0.1384928,-0.25631 -0.1384929,-0.0827 -0.432015,-0.0827 -0.2377116,0 -0.4423502,0.0475 -0.2046387,0.0475 -0.3803385,0.14262 v -0.5643 q 0.2377115,-0.0579 0.4774902,-0.0868 0.2397786,-0.031 0.4795572,-0.031 0.6263184,0 0.903304,0.24804 0.2790527,0.24598 0.2790527,0.80202 z"
         style="font-size:4.23333311px;stroke-width:0.26458332"
         id="path102"
         inkscape:connector-curvature="0" />
      <path
         d="m 8.1852548,102.99149 v 0.65733 h 0.7627441 v 0.52916 H 8.1852548 v 0.98186 q 0,0.16123 0.064079,0.2191 0.064079,0.0558 0.254248,0.0558 h 0.3803385 v 0.52917 H 8.2493336 q -0.4382162,0 -0.6221842,-0.1819 -0.1819011,-0.18397 -0.1819011,-0.62218 v -0.98186 H 7.0773121 v -0.52916 h 0.3679362 v -0.65733 z"
         style="font-size:4.23333311px;stroke-width:0.26458332"
         id="path105"
         inkscape:connector-curvature="0" />
      <path
         d="m 11.713722,104.80017 v 0.21084 H 9.9835948 q 0.026872,0.26045 0.1881022,0.39067 0.16123,0.13023 0.450618,0.13023 0.233578,0 0.477491,-0.0682 0.245979,-0.0703 0.504362,-0.21084 v 0.57051 q -0.262517,0.0992 -0.525033,0.14883 -0.262516,0.0517 -0.525032,0.0517 -0.6283858,0 -0.9777185,-0.31833 -0.3472656,-0.3204 -0.3472656,-0.8971 0,-0.56638 0.3410645,-0.89091 0.3431315,-0.32452 0.9425776,-0.32452 0.545704,0 0.872299,0.32866 0.328662,0.32866 0.328662,0.8785 z m -0.760677,-0.24598 q 0,-0.21084 -0.124024,-0.339 -0.121956,-0.13022 -0.320394,-0.13022 -0.214974,0 -0.349332,0.12195 -0.134359,0.11989 -0.167432,0.34727 z"
         style="font-size:4.23333311px;stroke-width:0.26458332"
         id="path107"
         inkscape:connector-curvature="0" />
    </g>
    <g
       aria-label="Release"
       style="font-style:normal;font-variant:normal;font-weight:bold;font-stretch:normal;font-size:3.52777767px;line-height:1.25;font-family:sans-serif;-inkscape-font-specification:'sans-serif Bold';letter-spacing:0px;word-spacing:0px;fill:#000000;fill-opacity:1;stroke:none;stroke-width:0.26458332"
       id="text114"
       transform="translate(-24.60625)">
      <path
         d="m 8.9003351,53.514398 q 0.2084283,0 0.2980008,-0.07751 0.091295,-0.07751 0.091295,-0.254937 0,-0.1757 -0.091295,-0.251492 -0.089572,-0.07579 -0.2980008,-0.07579 H 8.6212824 v 0.659736 z m -0.2790527,0.458198 v 0.973239 H 7.9581015 v -2.571764 h 1.0128581 q 0.5081515,0 0.7441406,0.170533 0.2377116,0.170532 0.2377116,0.539157 0,0.254937 -0.1240235,0.418579 -0.1223009,0.163642 -0.3703477,0.241157 0.1360812,0.03101 0.2428792,0.141249 0.1085205,0.10852 0.2187635,0.330729 l 0.3600127,0.73036 H 9.5738513 L 9.2603476,54.30677 Q 9.1656076,54.113845 9.0674222,54.04322 8.9709592,53.9726 8.8090401,53.9726 Z"
         style="font-size:3.52777767px;stroke-width:0.26458332"
         id="path110"
         inkscape:connector-curvature="0" />
      <path
         d="m 12.571084,53.976041 v 0.1757 h -1.441772 q 0.02239,0.217041 0.156752,0.325561 0.134358,0.108521 0.375515,0.108521 0.194648,0 0.397909,-0.05684 0.204983,-0.05857 0.420301,-0.1757 v 0.475423 q -0.218763,0.08268 -0.437527,0.124023 -0.218763,0.04306 -0.437527,0.04306 -0.523654,0 -0.814765,-0.265272 -0.289388,-0.266995 -0.289388,-0.747586 0,-0.471978 0.28422,-0.742418 0.285943,-0.27044 0.785482,-0.27044 0.454753,0 0.726915,0.273885 0.273885,0.273885 0.273885,0.732083 z m -0.633897,-0.204983 q 0,-0.1757 -0.103353,-0.282498 -0.10163,-0.108521 -0.266995,-0.108521 -0.179145,0 -0.291111,0.101631 -0.111965,0.09991 -0.139526,0.289388 z"
         style="font-size:3.52777767px;stroke-width:0.26458332"
         id="path112"
         inkscape:connector-curvature="0" />
      <path
         d="m 13.036172,52.265551 h 0.616672 v 2.680284 h -0.616672 z"
         style="font-size:3.52777767px;stroke-width:0.26458332"
         id="path114"
         inkscape:connector-curvature="0" />
      <path
         d="m 16.174654,53.976041 v 0.1757 h -1.441772 q 0.02239,0.217041 0.156752,0.325561 0.134358,0.108521 0.375515,0.108521 0.194648,0 0.397908,-0.05684 0.204984,-0.05857 0.420302,-0.1757 v 0.475423 q -0.218763,0.08268 -0.437527,0.124023 -0.218764,0.04306 -0.437527,0.04306 -0.523655,0 -0.814765,-0.265272 -0.289388,-0.266995 -0.289388,-0.747586 0,-0.471978 0.28422,-0.742418 0.285943,-0.27044 0.785482,-0.27044 0.454752,0 0.726915,0.273885 0.273885,0.273885 0.273885,0.732083 z m -0.633897,-0.204983 q 0,-0.1757 -0.103353,-0.282498 -0.101631,-0.108521 -0.266995,-0.108521 -0.179145,0 -0.291111,0.101631 -0.111965,0.09991 -0.139526,0.289388 z"
         style="font-size:3.52777767px;stroke-width:0.26458332"
         id="path116"
         inkscape:connector-curvature="0" />
      <path
         d="m 17.504461,54.077671 q -0.192926,0 -0.291111,0.06546 -0.09646,0.06546 -0.09646,0.192925 0,0.117133 0.07752,0.184313 0.07924,0.06546 0.218764,0.06546 0.173977,0 0.292833,-0.124024 0.118855,-0.125746 0.118855,-0.313503 v -0.07062 z m 0.942233,-0.232544 v 1.100708 h -0.62184 v -0.285943 q -0.124023,0.1757 -0.279052,0.25666 -0.15503,0.07924 -0.377238,0.07924 -0.299724,0 -0.487481,-0.173977 -0.186035,-0.1757 -0.186035,-0.454753 0,-0.339342 0.232544,-0.497816 0.234266,-0.158475 0.733805,-0.158475 h 0.363457 v -0.04823 q 0,-0.146416 -0.11541,-0.213596 -0.115411,-0.0689 -0.360013,-0.0689 -0.198093,0 -0.368625,0.03962 -0.170532,0.03962 -0.316949,0.118856 v -0.470256 q 0.198093,-0.04823 0.397909,-0.07235 0.199815,-0.02584 0.399631,-0.02584 0.521932,0 0.752753,0.206706 0.232544,0.204983 0.232544,0.668348 z"
         style="font-size:3.52777767px;stroke-width:0.26458332"
         id="path118"
         inkscape:connector-curvature="0" />
      <path
         d="m 20.530977,53.076871 v 0.468533 q -0.198093,-0.08268 -0.382405,-0.124024 -0.184313,-0.04134 -0.347955,-0.04134 -0.1757,0 -0.261827,0.04479 -0.08441,0.04306 -0.08441,0.134358 0,0.07407 0.06373,0.113688 0.06546,0.03962 0.232544,0.05857 l 0.108521,0.0155 q 0.4737,0.06029 0.637342,0.198093 0.163642,0.137804 0.163642,0.432359 0,0.308336 -0.227376,0.463366 -0.227376,0.155029 -0.678684,0.155029 -0.191202,0 -0.396186,-0.03101 -0.20326,-0.02928 -0.418579,-0.08957 V 54.40668 q 0.184313,0.08957 0.377238,0.134358 0.194648,0.04479 0.394464,0.04479 0.180867,0 0.272162,-0.04995 0.09129,-0.04995 0.09129,-0.148139 0,-0.08268 -0.06373,-0.122301 -0.06201,-0.04134 -0.249769,-0.06373 l -0.108521,-0.01378 q -0.411689,-0.05168 -0.577053,-0.191203 -0.165365,-0.139526 -0.165365,-0.423746 0,-0.306614 0.210151,-0.454753 0.210151,-0.148139 0.644233,-0.148139 0.170532,0 0.35829,0.02584 0.187757,0.02584 0.408243,0.08096 z"
         style="font-size:3.52777767px;stroke-width:0.26458332"
         id="path120"
         inkscape:connector-curvature="0" />
      <path
         d="m 23.051065,53.976041 v 0.1757 h -1.441773 q 0.02239,0.217041 0.156752,0.325561 0.134359,0.108521 0.375515,0.108521 0.194648,0 0.397909,-0.05684 0.204983,-0.05857 0.420302,-0.1757 v 0.475423 q -0.218764,0.08268 -0.437528,0.124023 -0.218763,0.04306 -0.437527,0.04306 -0.523654,0 -0.814765,-0.265272 -0.289388,-0.266995 -0.289388,-0.747586 0,-0.471978 0.284221,-0.742418 0.285943,-0.27044 0.785481,-0.27044 0.454753,0 0.726916,0.273885 0.273885,0.273885 0.273885,0.732083 z m -0.633898,-0.204983 q 0,-0.1757 -0.103353,-0.282498 -0.10163,-0.108521 -0.266995,-0.108521 -0.179145,0 -0.29111,0.101631 -0.111966,0.09991 -0.139527,0.289388 z"
         style="font-size:3.52777767px;stroke-width:0.26458332"
         id="path122"
         inkscape:connector-curvature="0" />
    </g>
    <g
       aria-label="Arpegiator"
       style="font-style:normal;font-variant:normal;font-weight:bold;font-stretch:normal;font-size:4.23333311px;line-height:1.25;font-family:sans-serif;-inkscape-font-specification:'sans-serif Bold';letter-spacing:0px;word-spacing:0px;fill:#000000;fill-opacity:1;stroke:none;stroke-width:0.26458332"
       id="text98">
      <path
         d="M 5.1717772,9.4044276 H 3.9274087 L 3.7310383,9.9666672 H 2.9310872 L 4.0741698,6.8805508 H 5.022949 L 6.1660317,9.9666672 H 5.3660805 Z M 4.1258462,8.8318528 H 4.9712726 L 4.5495929,7.6040208 Z"
         style="stroke-width:0.26458332"
         id="path111" />
      <path
         d="m 8.2599606,8.2820156 q -0.097152,-0.045475 -0.1943034,-0.066146 -0.095085,-0.022738 -0.1922363,-0.022738 -0.2852539,0 -0.4402832,0.1839681 -0.1529622,0.181901 -0.1529622,0.5229655 V 9.9666672 H 6.540169 V 7.6515631 H 7.2801755 V 8.0319017 Q 7.4228024,7.8045254 7.6067705,7.7011725 7.7928057,7.5957526 8.0511878,7.5957526 q 0.037207,0 0.080615,0.00413 0.043408,0.00207 0.1260905,0.012402 z"
         style="stroke-width:0.26458332"
         id="path113" />
      <path
         d="M 9.3720372,9.6318039 V 10.847234 H 8.6320307 V 7.6515631 h 0.7400065 v 0.3389974 q 0.1529622,-0.2025716 0.3389974,-0.2976562 0.1860351,-0.097152 0.4278804,-0.097152 0.427881,0 0.7028,0.3410644 0.274918,0.3389974 0.274918,0.8743652 0,0.5353678 -0.274918,0.8764323 -0.274919,0.3389975 -0.7028,0.3389975 -0.2418453,0 -0.4278804,-0.095085 Q 9.5249994,9.8343755 9.3720372,9.6318039 Z M 9.8639968,8.1331875 q -0.2377116,0 -0.3658691,0.1756998 -0.1260905,0.1736328 -0.1260905,0.5022949 0,0.3286621 0.1260905,0.504362 0.1281575,0.1736328 0.3658691,0.1736328 0.2377112,0 0.3617352,-0.1736328 0.12609,-0.1736328 0.12609,-0.504362 0,-0.3307291 -0.12609,-0.5043619 Q 10.101708,8.1331875 9.8639968,8.1331875 Z"
         style="stroke-width:0.26458332"
         id="path115" />
      <path
         d="m 13.977441,8.802914 v 0.2108398 h -1.730127 q 0.02687,0.2604492 0.188102,0.3906738 0.16123,0.1302246 0.450619,0.1302246 0.233577,0 0.47749,-0.068213 0.24598,-0.07028 0.504362,-0.2108398 v 0.5705078 q -0.262517,0.099219 -0.525033,0.1488281 -0.262516,0.051677 -0.525032,0.051677 -0.628386,0 -0.977718,-0.318327 -0.347266,-0.3203938 -0.347266,-0.8971028 0,-0.5663737 0.341064,-0.8909016 0.343132,-0.324528 0.942578,-0.324528 0.545704,0 0.872299,0.3286621 0.328662,0.3286621 0.328662,0.8784993 z M 13.216764,8.5569342 q 0,-0.2108399 -0.124024,-0.3389974 -0.121956,-0.1302246 -0.320394,-0.1302246 -0.214974,0 -0.349332,0.1219564 -0.134359,0.1198893 -0.167432,0.3472656 z"
         style="stroke-width:0.26458332"
         id="path117" />
      <path
         d="m 16.110644,9.5739263 q -0.152962,0.2025716 -0.33693,0.2976562 -0.183968,0.095085 -0.425814,0.095085 -0.423747,0 -0.700732,-0.3327962 -0.276986,-0.3348633 -0.276986,-0.8516276 0,-0.5188313 0.276986,-0.8495605 0.276985,-0.3327962 0.700732,-0.3327962 0.241846,0 0.425814,0.095085 0.183968,0.095085 0.33693,0.2997233 V 7.6515631 h 0.744141 v 2.0815266 q 0,0.5581053 -0.353467,0.8516273 -0.3514,0.295589 -1.021126,0.295589 -0.217041,0 -0.419613,-0.03307 -0.202572,-0.03307 -0.40721,-0.101286 v -0.576709 q 0.194303,0.111621 0.380338,0.165364 0.186035,0.05581 0.374138,0.05581 0.363802,0 0.5333,-0.159164 0.169499,-0.159163 0.169499,-0.4981603 z M 15.622819,8.1331875 q -0.229444,0 -0.357601,0.1694986 -0.128158,0.1694987 -0.128158,0.4795573 0,0.3183268 0.124024,0.4836914 0.124023,0.1632975 0.361735,0.1632975 0.23151,0 0.359668,-0.1694987 0.128157,-0.1694987 0.128157,-0.4774902 0,-0.3100586 -0.128157,-0.4795573 -0.128158,-0.1694986 -0.359668,-0.1694986 z"
         style="stroke-width:0.26458332"
         id="path119" />
      <path
         d="m 17.569987,7.6515631 h 0.740006 v 2.3151041 h -0.740006 z m 0,-0.9012369 h 0.740006 v 0.6035807 h -0.740006 z"
         style="stroke-width:0.26458332"
         id="path121" />
      <path
         d="m 20.062857,8.9248704 q -0.23151,0 -0.349333,0.078548 -0.115755,0.078548 -0.115755,0.2315104 0,0.1405599 0.09302,0.2211752 0.09508,0.078548 0.262516,0.078548 0.208773,0 0.3514,-0.1488281 0.142627,-0.1508952 0.142627,-0.3762044 v -0.084749 z m 1.13068,-0.2790528 V 9.9666672 H 20.44733 V 9.6235357 q -0.148828,0.2108398 -0.334864,0.3079915 -0.186035,0.095085 -0.452685,0.095085 -0.359668,0 -0.584977,-0.2087729 -0.223242,-0.2108399 -0.223242,-0.5457031 0,-0.4072103 0.279052,-0.5973796 0.28112,-0.1901692 0.880567,-0.1901692 h 0.436149 v -0.057878 q 0,-0.1756999 -0.138493,-0.2563151 -0.138493,-0.082682 -0.432015,-0.082682 -0.237712,0 -0.44235,0.047542 -0.204639,0.047542 -0.380339,0.142627 V 7.7135748 q 0.237712,-0.057878 0.47749,-0.086816 0.239779,-0.031006 0.479558,-0.031006 0.626318,0 0.903304,0.2480468 0.279052,0.2459799 0.279052,0.8020182 z"
         style="stroke-width:0.26458332"
         id="path123" />
      <path
         d="m 22.694222,6.9942389 v 0.6573242 h 0.762744 v 0.5291667 h -0.762744 v 0.9818521 q 0,0.1612305 0.06408,0.2191081 0.06408,0.05581 0.254248,0.05581 h 0.380338 v 0.5291667 h -0.634586 q -0.438216,0 -0.622184,-0.1819011 -0.181901,-0.183968 -0.181901,-0.6221842 V 8.1807298 H 21.586279 V 7.6515631 h 0.367937 V 6.9942389 Z"
         style="stroke-width:0.26458332"
         id="path125" />
      <path
         d="m 25.013459,8.1249192 q -0.24598,0 -0.376204,0.1777669 -0.128158,0.1756999 -0.128158,0.5084961 0,0.3327962 0.128158,0.5105631 0.130224,0.1756999 0.376204,0.1756999 0.241846,0 0.370003,-0.1756999 0.128158,-0.1777669 0.128158,-0.5105631 0,-0.3327962 -0.128158,-0.5084961 -0.128157,-0.1777669 -0.370003,-0.1777669 z m 0,-0.5291666 q 0.59738,0 0.932243,0.3224609 0.33693,0.3224609 0.33693,0.8929687 0,0.5705078 -0.33693,0.8929687 -0.334863,0.3224611 -0.932243,0.3224611 -0.599446,0 -0.938444,-0.3224611 -0.33693,-0.3224609 -0.33693,-0.8929687 0,-0.5705078 0.33693,-0.8929687 0.338998,-0.3224609 0.938444,-0.3224609 z"
         style="stroke-width:0.26458332"
         id="path127" />
      <path
         d="m 28.541927,8.2820156 q -0.09715,-0.045475 -0.194304,-0.066146 -0.09508,-0.022738 -0.192236,-0.022738 -0.285254,0 -0.440283,0.1839681 -0.152962,0.181901 -0.152962,0.5229655 V 9.9666672 H 26.822135 V 7.6515631 h 0.740007 v 0.3803386 q 0.142627,-0.2273763 0.326595,-0.3307292 0.186035,-0.1054199 0.444417,-0.1054199 0.03721,0 0.08061,0.00413 0.04341,0.00207 0.126091,0.012402 z"
         style="stroke-width:0.26458332"
         id="path129" />
    </g>
    <g
       aria-label="Four"
       style="font-style:normal;font-variant:normal;font-weight:bold;font-stretch:normal;font-size:4.23333311px;line-height:1.25;font-family:sans-serif;-inkscape-font-specification:'sans-serif Bold';letter-spacing:0px;word-spacing:0px;display:inline;fill:#000000;fill-opacity:1;stroke:none;stroke-width:0.26458332"
       id="text115"
       transform="translate(-24.077083)">
      <path
         d="m 10.175708,30.163884 h 2.147673 v 0.601513 h -1.351855 v 0.574642 h 1.27124 v 0.601514 h -1.27124 V 33.25 h -0.795818 z"
         style="font-style:normal;font-variant:normal;font-weight:bold;font-stretch:normal;font-family:sans-serif;-inkscape-font-specification:'sans-serif Bold';stroke-width:0.26458332"
         id="path132"
         inkscape:connector-curvature="0" />
      <path
         d="m 13.964624,31.408252 q -0.245979,0 -0.376204,0.177767 -0.128158,0.1757 -0.128158,0.508496 0,0.332796 0.128158,0.510563 0.130225,0.1757 0.376204,0.1757 0.241846,0 0.370004,-0.1757 0.128157,-0.177767 0.128157,-0.510563 0,-0.332796 -0.128157,-0.508496 -0.128158,-0.177767 -0.370004,-0.177767 z m 0,-0.529167 q 0.59738,0 0.932243,0.322461 0.33693,0.322461 0.33693,0.892969 0,0.570508 -0.33693,0.892969 -0.334863,0.322461 -0.932243,0.322461 -0.599446,0 -0.938444,-0.322461 -0.33693,-0.322461 -0.33693,-0.892969 0,-0.570508 0.33693,-0.892969 0.338998,-0.322461 0.938444,-0.322461 z"
         style="font-style:normal;font-variant:normal;font-weight:bold;font-stretch:normal;font-family:sans-serif;-inkscape-font-specification:'sans-serif Bold';stroke-width:0.26458332"
         id="path134"
         inkscape:connector-curvature="0" />
      <path
         d="m 15.748495,32.348763 v -1.413867 h 0.74414 v 0.23151 q 0,0.188103 -0.0021,0.473356 -0.0021,0.283187 -0.0021,0.378272 0,0.279053 0.01447,0.403076 0.01447,0.121956 0.04961,0.177767 0.04547,0.07235 0.117822,0.111621 0.07441,0.03927 0.169499,0.03927 0.23151,0 0.363802,-0.177767 0.132292,-0.177767 0.132292,-0.494026 v -1.143083 h 0.740006 V 33.25 H 17.33593 v -0.334863 q -0.167432,0.202571 -0.355534,0.299723 -0.186035,0.09508 -0.411345,0.09508 -0.401009,0 -0.611848,-0.24598 -0.208773,-0.24598 -0.208773,-0.715202 z"
         style="font-style:normal;font-variant:normal;font-weight:bold;font-stretch:normal;font-family:sans-serif;-inkscape-font-specification:'sans-serif Bold';stroke-width:0.26458332"
         id="path136"
         inkscape:connector-curvature="0" />
      <path
         d="m 20.510994,31.565348 q -0.09715,-0.04547 -0.194303,-0.06614 -0.09508,-0.02274 -0.192236,-0.02274 -0.285254,0 -0.440284,0.183968 -0.152962,0.181901 -0.152962,0.522965 V 33.25 h -0.740006 v -2.315104 h 0.740006 v 0.380338 q 0.142627,-0.227376 0.326595,-0.330729 0.186035,-0.10542 0.444418,-0.10542 0.03721,0 0.08061,0.0041 0.04341,0.0021 0.12609,0.0124 z"
         style="font-style:normal;font-variant:normal;font-weight:bold;font-stretch:normal;font-family:sans-serif;-inkscape-font-specification:'sans-serif Bold';stroke-width:0.26458332"
         id="path138"
         inkscape:connector-curvature="0" />
    </g>
    <g
       aria-label="Three"
       style="font-style:normal;font-variant:normal;font-weight:bold;font-stretch:normal;font-size:4.23333311px;line-height:1.25;font-family:sans-serif;-inkscape-font-specification:'sans-serif Bold';letter-spacing:0px;word-spacing:0px;display:inline;fill:#000000;fill-opacity:1;stroke:none;stroke-width:0.26458332"
       id="text119"
       transform="translate(-0.690398,0.26458333)">
      <path
         d="m 8.9106719,43.657635 h 2.8442711 v 0.601514 h -1.023194 v 2.484603 H 9.9359322 V 44.259149 H 8.9106719 Z"
         style="font-style:normal;font-variant:normal;font-weight:bold;font-stretch:normal;font-family:sans-serif;-inkscape-font-specification:'sans-serif Bold';stroke-width:0.26458332"
         id="path141"
         inkscape:connector-curvature="0" />
      <path
         d="m 14.458653,45.334019 v 1.409733 h -0.74414 v -0.229444 -0.845426 q 0,-0.303858 -0.01447,-0.417546 -0.0124,-0.113688 -0.04548,-0.167431 -0.04341,-0.07235 -0.117822,-0.111621 -0.07441,-0.04134 -0.169499,-0.04134 -0.23151,0 -0.363802,0.179834 -0.132292,0.177767 -0.132292,0.494027 v 1.138949 h -0.740006 v -3.216341 h 0.740006 v 1.240234 q 0.167432,-0.202572 0.355534,-0.297656 0.188102,-0.09715 0.415479,-0.09715 0.401009,0 0.607715,0.24598 0.208772,0.24598 0.208772,0.715202 z"
         style="font-style:normal;font-variant:normal;font-weight:bold;font-stretch:normal;font-family:sans-serif;-inkscape-font-specification:'sans-serif Bold';stroke-width:0.26458332"
         id="path143"
         inkscape:connector-curvature="0" />
      <path
         d="m 16.868842,45.0591 q -0.09715,-0.04548 -0.194303,-0.06615 -0.09509,-0.02274 -0.192237,-0.02274 -0.285254,0 -0.440283,0.183969 -0.152962,0.181901 -0.152962,0.522965 v 1.066602 H 15.14905 v -2.315105 h 0.740007 v 0.380339 q 0.142627,-0.227376 0.326595,-0.330729 0.186035,-0.10542 0.444417,-0.10542 0.03721,0 0.08062,0.0041 0.04341,0.0021 0.12609,0.0124 z"
         style="font-style:normal;font-variant:normal;font-weight:bold;font-stretch:normal;font-family:sans-serif;-inkscape-font-specification:'sans-serif Bold';stroke-width:0.26458332"
         id="path145"
         inkscape:connector-curvature="0" />
      <path
         d="m 19.551883,45.579998 v 0.21084 h -1.730127 q 0.02687,0.260449 0.188102,0.390674 0.16123,0.130225 0.450618,0.130225 0.233578,0 0.477491,-0.06821 0.245979,-0.07028 0.504362,-0.21084 v 0.570508 q -0.262517,0.09922 -0.525033,0.148828 -0.262516,0.05168 -0.525032,0.05168 -0.628386,0 -0.977719,-0.318327 -0.347265,-0.320393 -0.347265,-0.897102 0,-0.566374 0.341064,-0.890902 0.343132,-0.324528 0.942578,-0.324528 0.545703,0 0.872299,0.328662 0.328662,0.328662 0.328662,0.878499 z m -0.760677,-0.245979 q 0,-0.21084 -0.124024,-0.338998 -0.121956,-0.130224 -0.320394,-0.130224 -0.214974,0 -0.349332,0.121956 -0.134359,0.119889 -0.167432,0.347266 z"
         style="font-style:normal;font-variant:normal;font-weight:bold;font-stretch:normal;font-family:sans-serif;-inkscape-font-specification:'sans-serif Bold';stroke-width:0.26458332"
         id="path147"
         inkscape:connector-curvature="0" />
      <path
         d="m 22.420957,45.579998 v 0.21084 h -1.730126 q 0.02687,0.260449 0.188102,0.390674 0.16123,0.130225 0.450618,0.130225 0.233578,0 0.47749,-0.06821 0.24598,-0.07028 0.504362,-0.21084 v 0.570508 q -0.262516,0.09922 -0.525032,0.148828 -0.262516,0.05168 -0.525033,0.05168 -0.628385,0 -0.977718,-0.318327 -0.347265,-0.320393 -0.347265,-0.897102 0,-0.566374 0.341064,-0.890902 0.343132,-0.324528 0.942578,-0.324528 0.545703,0 0.872298,0.328662 0.328662,0.328662 0.328662,0.878499 z M 21.66028,45.334019 q 0,-0.21084 -0.124023,-0.338998 -0.121956,-0.130224 -0.320394,-0.130224 -0.214974,0 -0.349333,0.121956 -0.134358,0.119889 -0.167431,0.347266 z"
         style="font-style:normal;font-variant:normal;font-weight:bold;font-stretch:normal;font-family:sans-serif;-inkscape-font-specification:'sans-serif Bold';stroke-width:0.26458332"
         id="path149"
         inkscape:connector-curvature="0" />
    </g>
    <g
       aria-label="Up"
       style="font-style:normal;font-variant:normal;font-weight:bold;font-stretch:normal;font-size:4.23333311px;line-height:1.25;font-family:sans-serif;-inkscape-font-specification:'sans-serif Bold';letter-spacing:0px;word-spacing:0px;display:inline;fill:#000000;fill-opacity:1;stroke:none;stroke-width:0.26458332"
       id="text106"
       transform="translate(6.2034607e-7,-1.5875031)">
      <path
         d="m 12.559026,62.002057 h 0.795817 v 1.850016 q 0,0.382405 0.124024,0.54777 0.12609,0.163297 0.409277,0.163297 0.285254,0 0.409278,-0.163297 0.12609,-0.165365 0.12609,-0.54777 v -1.850016 h 0.795817 v 1.850016 q 0,0.655257 -0.328662,0.975651 -0.328662,0.320394 -1.002523,0.320394 -0.671793,0 -1.000455,-0.320394 -0.328663,-0.320394 -0.328663,-0.975651 z"
         style="font-style:normal;font-variant:normal;font-weight:bold;font-stretch:normal;font-family:sans-serif;-inkscape-font-specification:'sans-serif Bold';stroke-width:0.26458332"
         id="path152"
         inkscape:connector-curvature="0" />
      <path
         d="m 16.705543,64.75331 v 1.215429 h -0.740006 v -3.19567 h 0.740006 v 0.338997 q 0.152962,-0.202571 0.338997,-0.297656 0.186036,-0.09715 0.427881,-0.09715 0.427881,0 0.7028,0.341065 0.274918,0.338997 0.274918,0.874365 0,0.535368 -0.274918,0.876432 -0.274919,0.338998 -0.7028,0.338998 -0.241845,0 -0.427881,-0.09508 -0.186035,-0.09715 -0.338997,-0.299723 z m 0.49196,-1.498617 q -0.237712,0 -0.365869,0.1757 -0.126091,0.173633 -0.126091,0.502295 0,0.328662 0.126091,0.504362 0.128157,0.173633 0.365869,0.173633 0.237711,0 0.361735,-0.173633 0.12609,-0.173633 0.12609,-0.504362 0,-0.330729 -0.12609,-0.504362 -0.124024,-0.173633 -0.361735,-0.173633 z"
         style="font-style:normal;font-variant:normal;font-weight:bold;font-stretch:normal;font-family:sans-serif;-inkscape-font-specification:'sans-serif Bold';stroke-width:0.26458332"
         id="path154"
         inkscape:connector-curvature="0" />
    </g>
    <g
       aria-label="Up/Down"
       style="font-style:normal;font-variant:normal;font-weight:bold;font-stretch:normal;font-size:4.23333311px;line-height:1.25;font-family:sans-serif;-inkscape-font-specification:'sans-serif Bold';letter-spacing:0px;word-spacing:0px;display:inline;fill:#000000;fill-opacity:1;stroke:none;stroke-width:0.26458332"
       id="text110"
       transform="translate(0,1.0583333)">
      <path
         d="m 5.1796319,75.40762 h 0.795817 v 1.850016 q 0,0.382406 0.1240235,0.54777 0.1260904,0.163298 0.4092773,0.163298 0.2852539,0 0.4092773,-0.163298 0.1260905,-0.165364 0.1260905,-0.54777 V 75.40762 h 0.795817 v 1.850016 q 0,0.655257 -0.3286621,0.975651 -0.3286621,0.320394 -1.0025227,0.320394 -0.6717936,0 -1.0004557,-0.320394 -0.3286621,-0.320394 -0.3286621,-0.975651 z"
         style="font-style:normal;font-variant:normal;font-weight:bold;font-stretch:normal;font-family:sans-serif;-inkscape-font-specification:'sans-serif Bold';stroke-width:0.26458332"
         id="path157"
         inkscape:connector-curvature="0" />
      <path
         d="m 9.3261485,78.158873 v 1.21543 H 8.5861421 v -3.195671 h 0.7400064 v 0.338998 q 0.1529623,-0.202572 0.3389974,-0.297657 0.1860352,-0.09715 0.4278811,-0.09715 0.427881,0 0.702799,0.341064 0.274919,0.338997 0.274919,0.874365 0,0.535368 -0.274919,0.876433 -0.274918,0.338997 -0.702799,0.338997 -0.2418459,0 -0.4278811,-0.09508 -0.1860351,-0.09715 -0.3389974,-0.299723 z m 0.4919596,-1.498616 q -0.2377115,0 -0.3658691,0.175699 -0.1260905,0.173633 -0.1260905,0.502295 0,0.328662 0.1260905,0.504362 0.1281576,0.173633 0.3658691,0.173633 0.2377119,0 0.3617349,-0.173633 0.126091,-0.173633 0.126091,-0.504362 0,-0.330729 -0.126091,-0.504362 -0.124023,-0.173632 -0.3617349,-0.173632 z"
         style="font-style:normal;font-variant:normal;font-weight:bold;font-stretch:normal;font-family:sans-serif;-inkscape-font-specification:'sans-serif Bold';stroke-width:0.26458332"
         id="path159"
         inkscape:connector-curvature="0" />
      <path
         d="m 12.35232,75.40762 h 0.458887 l -1.089339,3.478857 h -0.45682 z"
         style="font-style:normal;font-variant:normal;font-weight:bold;font-stretch:normal;font-family:sans-serif;-inkscape-font-specification:'sans-serif Bold';stroke-width:0.26458332"
         id="path161"
         inkscape:connector-curvature="0" />
      <path
         d="m 13.995631,76.009134 v 1.883089 h 0.285253 q 0.487826,0 0.744141,-0.241846 0.258382,-0.241846 0.258382,-0.7028 0,-0.458886 -0.256315,-0.698665 -0.256315,-0.239778 -0.746208,-0.239778 z M 13.199814,75.40762 h 0.839225 q 0.702799,0 1.045931,0.101286 0.345198,0.09922 0.591178,0.338997 0.217041,0.208773 0.322461,0.481624 0.10542,0.272852 0.10542,0.61805 0,0.349333 -0.10542,0.624252 -0.10542,0.272851 -0.322461,0.481624 -0.248047,0.239779 -0.595312,0.341065 -0.347266,0.09922 -1.041797,0.09922 h -0.839225 z"
         style="font-style:normal;font-variant:normal;font-weight:bold;font-stretch:normal;font-family:sans-serif;-inkscape-font-specification:'sans-serif Bold';stroke-width:0.26458332"
         id="path163"
         inkscape:connector-curvature="0" />
      <path
         d="m 17.78248,76.651988 q -0.24598,0 -0.376204,0.177767 -0.128158,0.1757 -0.128158,0.508496 0,0.332797 0.128158,0.510563 0.130224,0.1757 0.376204,0.1757 0.241846,0 0.370003,-0.1757 0.128158,-0.177766 0.128158,-0.510563 0,-0.332796 -0.128158,-0.508496 -0.128157,-0.177767 -0.370003,-0.177767 z m 0,-0.529166 q 0.59738,0 0.932243,0.322461 0.33693,0.322461 0.33693,0.892968 0,0.570508 -0.33693,0.892969 -0.334863,0.322461 -0.932243,0.322461 -0.599446,0 -0.938444,-0.322461 -0.33693,-0.322461 -0.33693,-0.892969 0,-0.570507 0.33693,-0.892968 0.338998,-0.322461 0.938444,-0.322461 z"
         style="font-style:normal;font-variant:normal;font-weight:bold;font-stretch:normal;font-family:sans-serif;-inkscape-font-specification:'sans-serif Bold';stroke-width:0.26458332"
         id="path165"
         inkscape:connector-curvature="0" />
      <path
         d="m 19.384449,76.178632 h 0.719336 l 0.388606,1.595768 0.390674,-1.595768 h 0.61805 l 0.388607,1.579232 0.390674,-1.579232 h 0.719336 l -0.609782,2.315104 h -0.80822 l -0.390673,-1.591634 -0.388607,1.591634 h -0.80822 z"
         style="font-style:normal;font-variant:normal;font-weight:bold;font-stretch:normal;font-family:sans-serif;-inkscape-font-specification:'sans-serif Bold';stroke-width:0.26458332"
         id="path167"
         inkscape:connector-curvature="0" />
      <path
         d="m 25.829534,77.084003 v 1.409733 h -0.74414 v -0.229443 -0.849561 q 0,-0.299723 -0.01447,-0.413411 -0.0124,-0.113688 -0.04548,-0.167432 -0.04341,-0.07235 -0.117822,-0.111621 -0.07441,-0.04134 -0.169499,-0.04134 -0.23151,0 -0.363802,0.179834 -0.132292,0.177767 -0.132292,0.494027 v 1.138948 h -0.740006 v -2.315104 h 0.740006 v 0.338998 q 0.167432,-0.202572 0.355534,-0.297657 0.188102,-0.09715 0.415479,-0.09715 0.401009,0 0.607714,0.245979 0.208773,0.24598 0.208773,0.715202 z"
         style="font-style:normal;font-variant:normal;font-weight:bold;font-stretch:normal;font-family:sans-serif;-inkscape-font-specification:'sans-serif Bold';stroke-width:0.26458332"
         id="path169"
         inkscape:connector-curvature="0" />
    </g>
    <g
       aria-label="Clock"
       style="font-style:normal;font-variant:normal;font-weight:bold;font-stretch:normal;font-size:4.23333311px;line-height:1.25;font-family:sans-serif;-inkscape-font-specification:'sans-serif Bold';letter-spacing:0px;word-spacing:0px;display:inline;fill:#000000;fill-opacity:1;stroke:none;stroke-width:0.26458332"
       id="text102">
      <path
         d="m 15.271419,95.522167 q -0.219108,0.113688 -0.45682,0.171566 -0.237712,0.05788 -0.496094,0.05788 -0.771012,0 -1.22163,-0.429948 -0.450619,-0.432015 -0.450619,-1.169954 0,-0.740006 0.450619,-1.169954 0.450618,-0.432015 1.22163,-0.432015 0.258382,0 0.496094,0.05788 0.237712,0.05788 0.45682,0.171566 v 0.638721 q -0.221175,-0.150895 -0.436149,-0.221175 -0.214974,-0.07028 -0.452686,-0.07028 -0.425814,0 -0.669726,0.272851 -0.243913,0.272852 -0.243913,0.752409 0,0.47749 0.243913,0.750342 0.243912,0.272851 0.669726,0.272851 0.237712,0 0.452686,-0.07028 0.214974,-0.07028 0.436149,-0.221175 z"
         style="font-style:normal;font-variant:normal;font-weight:bold;font-stretch:normal;font-family:sans-serif;-inkscape-font-specification:'sans-serif Bold';stroke-width:0.26458332"
         id="path172" />
      <path
         d="m 15.899804,92.475325 h 0.740007 v 3.216341 h -0.740007 z"
         style="font-style:normal;font-variant:normal;font-weight:bold;font-stretch:normal;font-family:sans-serif;-inkscape-font-specification:'sans-serif Bold';stroke-width:0.26458332"
         id="path174" />
      <path
         d="m 18.456754,93.849918 q -0.24598,0 -0.376205,0.177767 -0.128157,0.175699 -0.128157,0.508496 0,0.332796 0.128157,0.510563 0.130225,0.1757 0.376205,0.1757 0.241845,0 0.370003,-0.1757 0.128157,-0.177767 0.128157,-0.510563 0,-0.332797 -0.128157,-0.508496 -0.128158,-0.177767 -0.370003,-0.177767 z m 0,-0.529167 q 0.597379,0 0.932242,0.322461 0.336931,0.322461 0.336931,0.892969 0,0.570507 -0.336931,0.892968 -0.334863,0.322461 -0.932242,0.322461 -0.599447,0 -0.938444,-0.322461 -0.336931,-0.322461 -0.336931,-0.892968 0,-0.570508 0.336931,-0.892969 0.338997,-0.322461 0.938444,-0.322461 z"
         style="font-style:normal;font-variant:normal;font-weight:bold;font-stretch:normal;font-family:sans-serif;-inkscape-font-specification:'sans-serif Bold';stroke-width:0.26458332"
         id="path176" />
      <path
         d="m 22.136116,93.448909 v 0.60358 q -0.150896,-0.103353 -0.303858,-0.152962 -0.150895,-0.04961 -0.314193,-0.04961 -0.310058,0 -0.483691,0.181901 -0.171566,0.179834 -0.171566,0.504362 0,0.324528 0.171566,0.506429 0.173633,0.179834 0.483691,0.179834 0.173633,0 0.328663,-0.05168 0.157096,-0.05168 0.289388,-0.152962 v 0.605648 q -0.173633,0.06408 -0.353467,0.09508 -0.177767,0.03307 -0.357601,0.03307 -0.626318,0 -0.979785,-0.320394 -0.353467,-0.32246 -0.353467,-0.895035 0,-0.572575 0.353467,-0.892969 0.353467,-0.322461 0.979785,-0.322461 0.181901,0 0.357601,0.03307 0.177767,0.03101 0.353467,0.09508 z"
         style="font-style:normal;font-variant:normal;font-weight:bold;font-stretch:normal;font-family:sans-serif;-inkscape-font-specification:'sans-serif Bold';stroke-width:0.26458332"
         id="path178" />
      <path
         d="m 22.77897,92.475325 h 0.740006 v 1.750797 l 0.851628,-0.84956 H 25.2305 l -1.13068,1.062467 1.219563,1.252637 H 24.42228 L 23.518976,94.72635 v 0.965316 H 22.77897 Z"
         style="font-style:normal;font-variant:normal;font-weight:bold;font-stretch:normal;font-family:sans-serif;-inkscape-font-specification:'sans-serif Bold';stroke-width:0.26458332"
         id="path180" />
    </g>
    <g
       aria-label="In"
       style="font-style:normal;font-variant:normal;font-weight:bold;font-stretch:normal;font-size:4.23333311px;line-height:1.25;font-family:sans-serif;-inkscape-font-specification:'sans-serif Bold';letter-spacing:0px;word-spacing:0px;fill:#000000;fill-opacity:1;stroke:none;stroke-width:0.26458332"
       id="text133">
      <path
         d="m 4.0927734,103.71804 h 0.795817 v 3.08612 h -0.795817 z"
         style="font-style:normal;font-variant:normal;font-weight:bold;font-stretch:normal;font-family:sans-serif;-inkscape-font-specification:'sans-serif Bold';stroke-width:0.26458332"
         id="path183" />
      <path
         d="m 7.9664386,105.39443 v 1.40973 H 7.222298 v -0.22944 -0.84956 q 0,-0.29973 -0.014469,-0.41341 -0.012402,-0.11369 -0.045475,-0.16744 -0.043408,-0.0723 -0.1178223,-0.11162 -0.074414,-0.0413 -0.1694987,-0.0413 -0.2315104,0 -0.363802,0.17984 -0.1322917,0.17776 -0.1322917,0.49402 v 1.13895 H 5.6389322 v -2.3151 h 0.7400065 v 0.33899 q 0.1674316,-0.20257 0.3555338,-0.29765 0.1881022,-0.0971 0.4154785,-0.0971 0.4010091,0 0.6077148,0.24598 0.2087728,0.24598 0.2087728,0.7152 z"
         style="font-style:normal;font-variant:normal;font-weight:bold;font-stretch:normal;font-family:sans-serif;-inkscape-font-specification:'sans-serif Bold';stroke-width:0.26458332"
         id="path185" />
    </g>
    <g
       aria-label="Five"
       style="font-style:normal;font-variant:normal;font-weight:bold;font-stretch:normal;font-size:4.23333311px;line-height:1.25;font-family:sans-serif;-inkscape-font-specification:'sans-serif Bold';letter-spacing:0px;word-spacing:0px;fill:#000000;fill-opacity:1;stroke:none;stroke-width:0.26458332"
       id="text190">
      <path
         d="m 10.810296,28.047215 h 2.147672 v 0.601514 h -1.351855 v 0.574641 h 1.27124 v 0.601514 h -1.27124 v 1.308447 h -0.795817 z"
         style="font-style:normal;font-variant:normal;font-weight:bold;font-stretch:normal;font-size:4.23333311px;font-family:sans-serif;-inkscape-font-specification:'sans-serif Bold';stroke-width:0.26458332"
         id="path192" />
      <path
         d="m 13.671103,28.818227 h 0.740006 v 2.315104 h -0.740006 z m 0,-0.901237 h 0.740006 v 0.603581 h -0.740006 z"
         style="font-style:normal;font-variant:normal;font-weight:bold;font-stretch:normal;font-size:4.23333311px;font-family:sans-serif;-inkscape-font-specification:'sans-serif Bold';stroke-width:0.26458332"
         id="path194" />
      <path
         d="m 14.834856,28.818227 h 0.740007 l 0.576709,1.599903 0.574642,-1.599903 h 0.742073 l -0.911572,2.315104 h -0.812353 z"
         style="font-style:normal;font-variant:normal;font-weight:bold;font-stretch:normal;font-size:4.23333311px;font-family:sans-serif;-inkscape-font-specification:'sans-serif Bold';stroke-width:0.26458332"
         id="path196" />
      <path
         d="m 20.19887,29.969578 v 0.21084 h -1.730127 q 0.02687,0.260449 0.188102,0.390674 0.16123,0.130224 0.450618,0.130224 0.233578,0 0.477491,-0.06821 0.245979,-0.07028 0.504362,-0.210839 v 0.570507 q -0.262517,0.09922 -0.525033,0.148829 -0.262516,0.05168 -0.525033,0.05168 -0.628385,0 -0.977718,-0.318327 -0.347265,-0.320394 -0.347265,-0.897103 0,-0.566373 0.341064,-0.890901 0.343132,-0.324528 0.942578,-0.324528 0.545703,0 0.872298,0.328662 0.328663,0.328662 0.328663,0.878499 z m -0.760677,-0.24598 q 0,-0.21084 -0.124024,-0.338997 -0.121956,-0.130225 -0.320394,-0.130225 -0.214974,0 -0.349332,0.121957 -0.134359,0.119889 -0.167432,0.347265 z"
         style="font-style:normal;font-variant:normal;font-weight:bold;font-stretch:normal;font-size:4.23333311px;font-family:sans-serif;-inkscape-font-specification:'sans-serif Bold';stroke-width:0.26458332"
         id="path198" />
    </g>
  </g>
  <g
     inkscape:groupmode="layer"
     id="layer2"
     inkscape:label="components"
     style="display:none">
    <circle
       style="display:inline;opacity:1;vector-effect:none;fill:#ff0000;fill-opacity:1;fill-rule:evenodd;stroke:none;stroke-width:1;stroke-linecap:butt;stroke-linejoin:miter;stroke-miterlimit:4;stroke-dasharray:none;stroke-dashoffset:0;stroke-opacity:1;paint-order:normal"
       id="path4954"
       cx="15.504583"
       cy="38.299011"
       r="4"
       inkscape:label="THREEFOUR" />
    <circle
       r="4"
       cy="112.00806"
       cx="6.3063002"
       id="circle4956"
       style="display:inline;opacity:1;vector-effect:none;fill:#00ff00;fill-opacity:1;fill-rule:evenodd;stroke:none;stroke-width:1;stroke-linecap:butt;stroke-linejoin:miter;stroke-miterlimit:4;stroke-dasharray:none;stroke-dashoffset:0;stroke-opacity:1;paint-order:normal"
       inkscape:label="in" />
    <circle
       style="display:inline;opacity:1;vector-effect:none;fill:#0000ff;fill-opacity:1;fill-rule:evenodd;stroke:none;stroke-width:1;stroke-linecap:butt;stroke-linejoin:miter;stroke-miterlimit:4;stroke-dasharray:none;stroke-dashoffset:0;stroke-opacity:1;paint-order:normal"
       id="circle4958"
       cx="21.695833"
       cy="112.00806"
       r="4"
       inkscape:label="out"
       inkscape:transform-center-x="-0.53453914"
       inkscape:transform-center-y="1.870887" />
    <circle
       style="display:inline;opacity:1;vector-effect:none;fill:#ff0000;fill-opacity:1;fill-rule:evenodd;stroke:none;stroke-width:1;stroke-linecap:butt;stroke-linejoin:miter;stroke-miterlimit:4;stroke-dasharray:none;stroke-dashoffset:0;stroke-opacity:1;paint-order:normal"
       id="path4954-3"
       cx="15.504583"
       cy="70.335396"
       r="4"
       inkscape:label="updown" />
    <circle
       style="display:inline;opacity:1;vector-effect:none;fill:#ff00ff;fill-opacity:1;fill-rule:evenodd;stroke:none;stroke-width:0.33854231;stroke-linecap:butt;stroke-linejoin:miter;stroke-miterlimit:4;stroke-dasharray:none;stroke-dashoffset:0;stroke-opacity:1;paint-order:normal"
       id="path4954-3-3-6"
       cx="5.5562491"
       cy="54.724979"
       r="1.3541692"
       inkscape:label="enabled" />
    <circle
       r="4"
       cy="94.368752"
       cx="6.2850938"
       id="circle4956-3"
       style="display:inline;opacity:1;vector-effect:none;fill:#00ff00;fill-opacity:1;fill-rule:evenodd;stroke:none;stroke-width:1;stroke-linecap:butt;stroke-linejoin:miter;stroke-miterlimit:4;stroke-dasharray:none;stroke-dashoffset:0;stroke-opacity:1;paint-order:normal"
       inkscape:label="clock" />
    <circle
       style="display:inline;opacity:1;vector-effect:none;fill:#ff0000;fill-opacity:1;fill-rule:evenodd;stroke:none;stroke-width:1;stroke-linecap:butt;stroke-linejoin:miter;stroke-miterlimit:4;stroke-dasharray:none;stroke-dashoffset:0;stroke-opacity:1;paint-order:normal"
       id="path4954-6"
       cx="15.345832"
       cy="54.416672"
       r="4"
       inkscape:label="enabled" />
  </g>
</svg>
