<?xml version="1.0" encoding="UTF-8" standalone="no"?>
<!-- Created with Inkscape (http://www.inkscape.org/) -->

<svg
   xmlns:dc="http://purl.org/dc/elements/1.1/"
   xmlns:cc="http://creativecommons.org/ns#"
   xmlns:rdf="http://www.w3.org/1999/02/22-rdf-syntax-ns#"
   xmlns:svg="http://www.w3.org/2000/svg"
   xmlns="http://www.w3.org/2000/svg"
   xmlns:sodipodi="http://sodipodi.sourceforge.net/DTD/sodipodi-0.dtd"
   xmlns:inkscape="http://www.inkscape.org/namespaces/inkscape"
   width="9mm"
   height="9mm"
   viewBox="0 0 9 9"
   version="1.1"
   id="svg141"
   inkscape:version="0.92.3 (2405546, 2018-03-11)"
   sodipodi:docname="BBSQ_SI.svg">
  <defs
     id="defs135" />
  <sodipodi:namedview
     id="base"
     pagecolor="#ffffff"
     bordercolor="#666666"
     borderopacity="1.0"
     inkscape:pageopacity="0.0"
     inkscape:pageshadow="2"
     inkscape:zoom="2"
     inkscape:cx="-94.25"
     inkscape:cy="25.796974"
     inkscape:document-units="mm"
     inkscape:current-layer="layer1"
     showgrid="false"
     inkscape:window-width="1299"
     inkscape:window-height="713"
     inkscape:window-x="67"
     inkscape:window-y="27"
     inkscape:window-maximized="1" />
  <metadata
     id="metadata138">
    <rdf:RDF>
      <cc:Work
         rdf:about="">
        <dc:format>image/svg+xml</dc:format>
        <dc:type
           rdf:resource="http://purl.org/dc/dcmitype/StillImage" />
        <dc:title></dc:title>
      </cc:Work>
    </rdf:RDF>
  </metadata>
  <g
     inkscape:label="Layer 1"
     inkscape:groupmode="layer"
     id="layer1"
     transform="translate(0,-288)">
    <rect
       style="fill:#cccccc;fill-opacity:1;fill-rule:evenodd;stroke:#cccccc;stroke-width:0.26458332"
       id="rect143"
       width="7.6729164"
       height="7.9375"
       x="0.13229166"
       y="289.32709"
       ry="7.0377576e-14" />
    <rect
       style="fill:#cccccc;fill-opacity:1;fill-rule:evenodd;stroke:#cccccc;stroke-width:0.26458332"
       id="rect145"
       width="7.6729164"
       height="7.9375"
       x="0.13229166"
       y="289.32709"
       ry="7.0377576e-14" />
    <rect
       style="fill:#333333;fill-opacity:1;fill-rule:evenodd;stroke:#cccccc;stroke-width:0.32751414"
       id="rect147"
       width="9.5943604"
       height="9.7266521"
       x="0.13229166"
       y="287.53793"
       ry="8.6241039e-14" />
    <rect
       style="fill:#808080;fill-opacity:1;fill-rule:evenodd;stroke:#cccccc;stroke-width:0.26458332"
       id="rect13"
       width="7.6729164"
       height="7.9375"
       x="1.0583333"
       y="288.40103"
       ry="8.6240931e-14" />
    <g
       aria-label="Sine"
       style="font-style:normal;font-variant:normal;font-weight:normal;font-stretch:normal;font-size:3.52777767px;line-height:1.25;font-family:sans-serif;-inkscape-font-specification:sans-serif;letter-spacing:0px;word-spacing:0px;fill:#000000;fill-opacity:1;stroke:none;stroke-width:0.26458332"
       id="text17">
      <path
         d="m 2.9462455,291.20533 v 0.33934 q -0.1980929,-0.0947 -0.3737928,-0.14125 -0.1756999,-0.0465 -0.3393419,-0.0465 -0.2842204,0 -0.4392497,0.11025 -0.1533067,0.11024 -0.1533067,0.3135 0,0.17053 0.1016303,0.25838 0.1033529,0.0861 0.3892958,0.13953 l 0.2101508,0.0431 q 0.3892958,0.0741 0.5736084,0.26183 0.1860351,0.18603 0.1860351,0.49954 0,0.37379 -0.2514919,0.56672 -0.2497694,0.19292 -0.7338053,0.19292 -0.1825901,0 -0.3892958,-0.0413 -0.2049832,-0.0413 -0.4254693,-0.1223 v -0.35829 q 0.2118734,0.11886 0.415134,0.17914 0.2032606,0.0603 0.3996311,0.0603 0.2980007,0 0.4599202,-0.11713 0.1619195,-0.11713 0.1619195,-0.33417 0,-0.18948 -0.1171333,-0.29628 -0.1154107,-0.1068 -0.380683,-0.1602 l -0.2118734,-0.0413 q -0.3892958,-0.0775 -0.5632731,-0.24288 -0.1739773,-0.16536 -0.1739773,-0.45992 0,-0.34106 0.2394341,-0.53743 0.2411567,-0.19637 0.6631809,-0.19637 0.1808675,0 0.3686252,0.0327 0.1877577,0.0327 0.3841281,0.0982 z"
         style="stroke-width:0.26458332"
         id="path38" />
      <path
         d="m 3.6300969,291.76343 h 0.3169488 v 1.92926 H 3.6300969 Z m 0,-0.75103 h 0.3169488 v 0.40136 H 3.6300969 Z"
         style="stroke-width:0.26458332"
         id="path40" />
      <path
         d="m 6.212196,292.52825 v 1.16444 H 5.8952472 v -1.15411 q 0,-0.27388 -0.106798,-0.40997 -0.1067979,-0.13608 -0.3203938,-0.13608 -0.2566596,0 -0.4047987,0.16365 -0.1481392,0.16364 -0.1481392,0.44614 v 1.09037 H 4.5964462 v -1.92926 h 0.3186713 v 0.29973 q 0.1136882,-0.17398 0.2669949,-0.26011 0.1550293,-0.0861 0.3565674,-0.0861 0.3324517,0 0.5029839,0.2067 0.1705323,0.20498 0.1705323,0.60462 z"
         style="stroke-width:0.26458332"
         id="path42" />
      <path
         d="m 8.4980164,292.64882 v 0.15503 H 7.0407411 q 0.020671,0.32729 0.1963704,0.49954 0.1774224,0.17053 0.4926487,0.17053 0.18259,0 0.3531222,-0.0448 0.1722548,-0.0448 0.3410645,-0.13436 v 0.29972 q -0.1705322,0.0724 -0.3496772,0.11025 -0.1791449,0.0379 -0.3634576,0.0379 -0.4616427,0 -0.7320827,-0.26872 -0.2687175,-0.26871 -0.2687175,-0.72691 0,-0.4737 0.2549371,-0.75103 0.2566596,-0.27905 0.6907416,-0.27905 0.3892958,0 0.6149495,0.25149 0.2273763,0.24977 0.2273763,0.6804 z m -0.3169487,-0.093 q -0.00345,-0.26011 -0.1464166,-0.41514 -0.1412489,-0.15503 -0.3755154,-0.15503 -0.2652723,0 -0.4254693,0.14986 -0.1584743,0.14987 -0.18259,0.42203 z"
         style="stroke-width:0.26458332"
         id="path44" />
    </g>
  </g>
</svg>
