<?xml version="1.0" encoding="UTF-8" standalone="no"?>
<!-- Created with Inkscape (http://www.inkscape.org/) -->

<svg
   xmlns:dc="http://purl.org/dc/elements/1.1/"
   xmlns:cc="http://creativecommons.org/ns#"
   xmlns:rdf="http://www.w3.org/1999/02/22-rdf-syntax-ns#"
   xmlns:svg="http://www.w3.org/2000/svg"
   xmlns="http://www.w3.org/2000/svg"
   xmlns:sodipodi="http://sodipodi.sourceforge.net/DTD/sodipodi-0.dtd"
   xmlns:inkscape="http://www.inkscape.org/namespaces/inkscape"
   width="30.48mm"
   height="128.5mm"
   viewBox="0 0 30.480002 128.50002"
   version="1.1"
   id="svg8"
   inkscape:version="0.92.3 (2405546, 2018-03-11)"
   sodipodi:docname="Portamento.svg">
  <defs
     id="defs2" />
  <sodipodi:namedview
     id="base"
     pagecolor="#ffffff"
     bordercolor="#666666"
     borderopacity="1.0"
     inkscape:pageopacity="0.0"
     inkscape:pageshadow="2"
     inkscape:zoom="1"
     inkscape:cx="86.899997"
     inkscape:cy="241.17463"
     inkscape:document-units="mm"
     inkscape:current-layer="layer1"
     showgrid="false"
     units="mm"
     inkscape:snap-bbox="true"
     inkscape:snap-page="true"
     inkscape:bbox-nodes="false"
     inkscape:snap-bbox-edge-midpoints="false"
     inkscape:window-width="950"
     inkscape:window-height="667"
     inkscape:window-x="405"
     inkscape:window-y="39"
     inkscape:window-maximized="0"
     inkscape:snap-bbox-midpoints="true"
     inkscape:snap-nodes="false"
     inkscape:snap-text-baseline="true"
     inkscape:lockguides="false">
    <inkscape:grid
       type="xygrid"
       id="grid125" />
  </sodipodi:namedview>
  <metadata
     id="metadata5">
    <rdf:RDF>
      <cc:Work
         rdf:about="">
        <dc:format>image/svg+xml</dc:format>
        <dc:type
           rdf:resource="http://purl.org/dc/dcmitype/StillImage" />
        <dc:title />
      </cc:Work>
    </rdf:RDF>
  </metadata>
  <g
     inkscape:label="Layer 1"
     inkscape:groupmode="layer"
     id="layer1"
     transform="translate(0,-168.49998)"
     style="display:inline">
    <rect
       style="display:inline;opacity:1;vector-effect:none;fill:#e6e6e6;fill-opacity:1;fill-rule:evenodd;stroke:none;stroke-width:0.64935839;stroke-linecap:butt;stroke-linejoin:miter;stroke-miterlimit:4;stroke-dasharray:none;stroke-dashoffset:0;stroke-opacity:1;paint-order:normal"
       id="rect420"
       width="30.48"
       height="128.5"
       x="0.26458335"
       y="168.76454" />
    <flowRoot
       xml:space="preserve"
       id="flowRoot109"
       style="font-style:normal;font-weight:normal;font-size:40px;line-height:1.25;font-family:sans-serif;letter-spacing:0px;word-spacing:0px;fill:#000000;fill-opacity:1;stroke:none"><flowRegion
         id="flowRegion111"><rect
           id="rect113"
           width="124"
           height="73"
           x="177"
           y="292.66928" /></flowRegion><flowPara
         id="flowPara115" /></flowRoot>    <flowRoot
       xml:space="preserve"
       id="flowRoot117"
       style="font-style:normal;font-weight:normal;font-size:40px;line-height:1.25;font-family:sans-serif;letter-spacing:0px;word-spacing:0px;fill:#000000;fill-opacity:1;stroke:none"
       transform="matrix(0.26458333,0,0,0.26458333,0,168.49998)"><flowRegion
         id="flowRegion119"><rect
           id="rect121"
           width="171"
           height="96"
           x="163"
           y="131.6693" /></flowRegion><flowPara
         id="flowPara123" /></flowRoot>    <flowRoot
       xml:space="preserve"
       id="flowRoot125"
       style="font-style:normal;font-weight:normal;font-size:10.66666698px;line-height:1.25;font-family:sans-serif;letter-spacing:0px;word-spacing:0px;fill:#000000;fill-opacity:1;stroke:none"
       transform="matrix(0.26458333,0,0,0.26458333,0,168.49998)"><flowRegion
         id="flowRegion127"><rect
           id="rect129"
           width="53"
           height="23"
           x="183"
           y="120.66929" /></flowRegion><flowPara
         id="flowPara131" /></flowRoot>    <flowRoot
       xml:space="preserve"
       id="flowRoot133"
       style="font-style:normal;font-weight:normal;font-size:10.66666698px;line-height:1.25;font-family:sans-serif;letter-spacing:0px;word-spacing:0px;fill:#000000;fill-opacity:1;stroke:none"
       transform="matrix(0.26458333,0,0,0.26458333,0,168.49998)"><flowRegion
         id="flowRegion135"><rect
           id="rect137"
           width="20"
           height="12"
           x="222"
           y="177.6693" /></flowRegion><flowPara
         id="flowPara139" /></flowRoot>    <flowRoot
       xml:space="preserve"
       id="flowRoot141"
       style="font-style:normal;font-weight:normal;font-size:10.66666698px;line-height:1.25;font-family:sans-serif;letter-spacing:0px;word-spacing:0px;fill:#000000;fill-opacity:1;stroke:none"
       transform="matrix(0.26458333,0,0,0.26458333,1.5875,169.55831)"><flowRegion
         id="flowRegion143"><rect
           id="rect145"
           width="37"
           height="15"
           x="69"
           y="376.66928" /></flowRegion><flowPara
         id="flowPara147" /></flowRoot>    <flowRoot
       xml:space="preserve"
       id="flowRoot149"
       style="font-style:normal;font-weight:normal;font-size:10.66666698px;line-height:1.25;font-family:sans-serif;letter-spacing:0px;word-spacing:0px;fill:#000000;fill-opacity:1;stroke:none"
       transform="matrix(0.26458333,0,0,0.26458333,2.1166667,168.2354)"><flowRegion
         id="flowRegion151"><rect
           id="rect153"
           width="31"
           height="15"
           x="69"
           y="337.66928" /></flowRegion><flowPara
         id="flowPara157" /></flowRoot>    <flowRoot
       xml:space="preserve"
       id="flowRoot159"
       style="font-style:normal;font-weight:normal;font-size:10.66666698px;line-height:1.25;font-family:sans-serif;letter-spacing:0px;word-spacing:0px;fill:#000000;fill-opacity:1;stroke:none"
       transform="matrix(0.26458333,0,0,0.26458333,0,168.49998)"><flowRegion
         id="flowRegion161"><rect
           id="rect163"
           width="35"
           height="11"
           x="68"
           y="427.66928" /></flowRegion><flowPara
         id="flowPara165">RootR</flowPara></flowRoot>    <flowRoot
       xml:space="preserve"
       id="flowRoot167"
       style="font-style:normal;font-weight:normal;font-size:13.33333397px;line-height:1.25;font-family:sans-serif;letter-spacing:0px;word-spacing:0px;fill:#000000;fill-opacity:1;stroke:none"
       transform="matrix(0.26458333,0,0,0.26458333,4.2333333,170.35206)"><flowRegion
         id="flowRegion169"
         style="font-size:13.33333397px"><rect
           id="rect171"
           width="52"
           height="22"
           x="51"
           y="416.66928"
           style="font-size:13.33333397px" /></flowRegion><flowPara
         id="flowPara173" /></flowRoot>    <flowRoot
       xml:space="preserve"
       id="flowRoot175"
       style="font-style:normal;font-weight:normal;font-size:16px;line-height:1.25;font-family:sans-serif;letter-spacing:0px;word-spacing:0px;fill:#000000;fill-opacity:1;stroke:none"
       transform="matrix(0.26458333,0,0,0.26458333,16.404167,135.16248)"><flowRegion
         id="flowRegion177"
         style="font-size:16px;fill:#000000"><rect
           id="rect179"
           width="0.9999994"
           height="1.9999995"
           x="11"
           y="322.66928"
           style="font-size:16px;fill:#000000" /></flowRegion><flowPara
         id="flowPara181" /></flowRoot>    <flowRoot
       xml:space="preserve"
       id="flowRoot183"
       style="font-style:normal;font-weight:normal;font-size:10.66666698px;line-height:1.25;font-family:sans-serif;letter-spacing:0px;word-spacing:0px;fill:#000000;fill-opacity:1;stroke:none"><flowRegion
         id="flowRegion185"><rect
           id="rect187"
           width="111"
           height="72"
           x="-129"
           y="127.66929" /></flowRegion><flowPara
         id="flowPara189" /></flowRoot>    <text
       xml:space="preserve"
       style="font-style:normal;font-weight:normal;font-size:3.52777767px;line-height:1.25;font-family:sans-serif;letter-spacing:0px;word-spacing:0px;fill:#ff0000;fill-opacity:1;stroke:none;stroke-width:0.26458332"
       x="-3.5527137e-15"
       y="273.9812"
       id="text3906"><tspan
         sodipodi:role="line"
         id="tspan3904"
         x="-3.5527137e-15"
         y="277.10245"
         style="font-size:3.52777767px;fill:#ff0000;stroke-width:0.26458332" /></text>
    <rect
       style="fill:#000000;stroke-width:0.13817421"
       id="rect3908"
       width="10.583334"
       height="15.875024"
       x="16.933334"
       y="270.32156"
       ry="1.5502768e-14" />
    <flowRoot
       xml:space="preserve"
       id="flowRoot110"
       style="font-style:normal;font-weight:normal;font-size:16px;line-height:1.25;font-family:sans-serif;letter-spacing:0px;word-spacing:0px;fill:#000000;fill-opacity:1;stroke:none"
       transform="matrix(0.26458333,0,0,0.26458333,0,168.49998)"><flowRegion
         id="flowRegion112"><rect
           id="rect114"
           width="11"
           height="23"
           x="-145"
           y="5.6692915" /></flowRegion><flowPara
         id="flowPara116">My</flowPara></flowRoot>    <rect
       style="display:inline;fill:#aa0000;fill-opacity:1;fill-rule:evenodd;stroke:#cccccc;stroke-width:0.231538"
       id="rect97"
       width="1.6205453"
       height="129.41428"
       x="28.029312"
       y="168.26364"
       ry="7.0395553e-14" />
  </g>
  <g
     inkscape:groupmode="layer"
     id="layer3"
     inkscape:label="text"
     style="display:inline">
    <g
       transform="scale(0.26458333)"
       style="font-style:normal;font-weight:normal;font-size:16px;line-height:1.25;font-family:sans-serif;letter-spacing:0px;word-spacing:0px;fill:#000000;fill-opacity:1;stroke:none"
       id="flowRoot96" />
    <g
       style="font-style:normal;font-weight:normal;font-size:4.23333311px;line-height:1.25;font-family:sans-serif;letter-spacing:0px;word-spacing:0px;fill:#000000;fill-opacity:1;stroke:none;stroke-width:0.26458332"
       id="text108" />
    <g
       aria-label="Portamento"
       style="font-style:normal;font-variant:normal;font-weight:bold;font-stretch:normal;font-size:4.23333311px;line-height:1.25;font-family:sans-serif;-inkscape-font-specification:'sans-serif Bold';letter-spacing:0px;word-spacing:0px;fill:#000000;fill-opacity:1;stroke:none;stroke-width:0.26458332"
       id="text153"
       transform="translate(-0.63499993)">
      <path
         d="m 2.3120041,7.8644633 h 1.3208495 q 0.5891113,0 0.903304,0.2625162 0.3162597,0.2604492 0.3162597,0.7441406 0,0.4857585 -0.3162597,0.7482747 Q 4.2219649,9.879844 3.6328536,9.879844 H 3.1078211 v 1.070736 h -0.795817 z m 0.795817,0.5767089 v 0.8619629 h 0.4402831 q 0.2315105,0 0.3576009,-0.1116211 0.1260905,-0.1136882 0.1260905,-0.3203939 0,-0.2067057 -0.1260905,-0.3183268 Q 3.7796147,8.4411722 3.5481042,8.4411722 Z"
         style="stroke-width:0.26458332"
         id="path74"
         inkscape:connector-curvature="0" />
      <path
         d="m 6.4812583,9.1088317 q -0.2459798,0 -0.3762044,0.1777669 -0.1281575,0.1756999 -0.1281575,0.5084961 0,0.3327963 0.1281575,0.5105633 0.1302246,0.1757 0.3762044,0.1757 0.2418457,0 0.3700033,-0.1757 0.1281575,-0.177767 0.1281575,-0.5105633 0,-0.3327962 -0.1281575,-0.5084961 Q 6.723104,9.1088317 6.4812583,9.1088317 Z m 0,-0.5291666 q 0.5973795,0 0.9322428,0.3224609 0.3369303,0.3224609 0.3369303,0.8929687 0,0.5705073 -0.3369303,0.8929683 -0.3348633,0.322461 -0.9322428,0.322461 -0.5994466,0 -0.9384439,-0.322461 Q 5.205884,10.365602 5.205884,9.7950947 q 0,-0.5705078 0.3369304,-0.8929687 0.3389973,-0.3224609 0.9384439,-0.3224609 z"
         style="stroke-width:0.26458332"
         id="path76"
         inkscape:connector-curvature="0" />
      <path
         d="M 10.009725,9.265928 Q 9.912574,9.220453 9.8154219,9.199782 9.7203369,9.177044 9.6231856,9.177044 q -0.2852539,0 -0.4402832,0.1839681 -0.1529622,0.181901 -0.1529622,0.5229654 V 10.95058 H 8.2899337 V 8.6354756 H 9.0299402 V 9.0158141 Q 9.1725671,8.7884378 9.3565352,8.685085 9.5425703,8.5796651 9.8009525,8.5796651 q 0.037207,0 0.080615,0.00413 0.043408,0.00207 0.1260905,0.012402 z"
         style="stroke-width:0.26458332"
         id="path78"
         inkscape:connector-curvature="0" />
      <path
         d="m 11.190015,7.9781514 v 0.6573242 h 0.762744 v 0.5291666 h -0.762744 v 0.9818518 q 0,0.161231 0.06408,0.219108 0.06408,0.05581 0.254248,0.05581 h 0.380338 v 0.529167 h -0.634586 q -0.438217,0 -0.622185,-0.181901 -0.181901,-0.183968 -0.181901,-0.622185 V 9.1646422 H 10.082072 V 8.6354756 h 0.367936 V 7.9781514 Z"
         style="stroke-width:0.26458332"
         id="path80"
         inkscape:connector-curvature="0" />
      <path
         d="m 13.445174,9.9087828 q -0.23151,0 -0.349333,0.078548 -0.115755,0.078548 -0.115755,0.2315102 0,0.14056 0.09302,0.221176 0.09508,0.07855 0.262516,0.07855 0.208773,0 0.3514,-0.148828 0.142627,-0.150896 0.142627,-0.376205 V 9.908785 Z m 1.13068,-0.2790527 V 10.95058 h -0.746207 v -0.343132 q -0.148829,0.21084 -0.334864,0.307992 -0.186035,0.09508 -0.452685,0.09508 -0.359668,0 -0.584977,-0.208772 -0.223243,-0.21084 -0.223243,-0.545704 0,-0.4072098 0.279053,-0.5973791 0.28112,-0.1901693 0.880567,-0.1901693 h 0.436149 V 9.410622 q 0,-0.1756998 -0.138493,-0.256315 -0.138493,-0.082682 -0.432015,-0.082682 -0.237712,0 -0.44235,0.047542 Q 12.61215,9.166709 12.43645,9.2617939 V 8.6974873 q 0.237712,-0.057878 0.47749,-0.086816 0.239779,-0.031006 0.479558,-0.031006 0.626318,0 0.903303,0.2480468 0.279053,0.2459798 0.279053,0.802018 z"
         style="stroke-width:0.26458332"
         id="path82"
         inkscape:connector-curvature="0" />
      <path
         d="m 17.413924,9.0199482 q 0.14056,-0.2149739 0.332796,-0.326595 0.194304,-0.1136881 0.425814,-0.1136881 0.398942,0 0.607715,0.2459798 0.208773,0.2459798 0.208773,0.7152017 V 10.95058 H 18.244881 V 9.7434182 q 0.0021,-0.026872 0.0021,-0.055811 0.0021,-0.028939 0.0021,-0.082682 0,-0.2459798 -0.07235,-0.3555338 -0.07235,-0.1116211 -0.233577,-0.1116211 -0.21084,0 -0.326595,0.1736328 -0.113689,0.1736328 -0.117823,0.5022949 v 1.136882 h -0.74414 V 9.7434182 q 0,-0.3844726 -0.06615,-0.4940266 -0.06615,-0.1116211 -0.235645,-0.1116211 -0.212906,0 -0.328662,0.1756999 -0.115755,0.1736328 -0.115755,0.4981607 V 10.95058 h -0.74414 V 8.6354756 h 0.74414 V 8.974473 q 0.136426,-0.1963705 0.312126,-0.2955892 0.177767,-0.099219 0.390674,-0.099219 0.239778,0 0.423746,0.1157552 0.183968,0.1157552 0.279053,0.3245279 z"
         style="stroke-width:0.26458332"
         id="path84"
         inkscape:connector-curvature="0" />
      <path
         d="m 21.994522,9.7868264 v 0.2108399 h -1.730127 q 0.02687,0.2604487 0.188103,0.3906737 0.16123,0.130225 0.450618,0.130225 0.233577,0 0.47749,-0.06821 0.24598,-0.07028 0.504362,-0.21084 v 0.570508 q -0.262516,0.09922 -0.525032,0.148828 -0.262517,0.05168 -0.525033,0.05168 -0.628385,0 -0.977718,-0.318327 -0.347266,-0.320393 -0.347266,-0.8971023 0,-0.5663737 0.341065,-0.8909017 0.343131,-0.3245279 0.942578,-0.3245279 0.545703,0 0.872298,0.328662 0.328662,0.3286621 0.328662,0.8784993 z M 21.233845,9.5408466 q 0,-0.2108398 -0.124023,-0.3389973 -0.121957,-0.1302246 -0.320394,-0.1302246 -0.214974,0 -0.349333,0.1219563 -0.134359,0.1198894 -0.167431,0.3472656 z"
         style="stroke-width:0.26458332"
         id="path86"
         inkscape:connector-curvature="0" />
      <path
         d="M 24.880134,9.5408466 V 10.95058 h -0.74414 V 10.721136 9.8715758 q 0,-0.2997233 -0.01447,-0.4134114 -0.0124,-0.1136882 -0.04547,-0.1674317 -0.04341,-0.072347 -0.117822,-0.1116211 -0.07441,-0.041341 -0.169499,-0.041341 -0.23151,0 -0.363802,0.179834 Q 23.29264,9.4953715 23.29264,9.8116312 V 10.95058 H 22.552628 V 8.6354756 h 0.740007 V 8.974473 q 0.167431,-0.2025716 0.355533,-0.2976563 0.188103,-0.097152 0.415479,-0.097152 0.401009,0 0.607715,0.2459798 0.208772,0.2459798 0.208772,0.7152021 z"
         style="stroke-width:0.26458332"
         id="path88"
         inkscape:connector-curvature="0" />
      <path
         d="m 26.378752,7.9781514 v 0.6573242 h 0.762744 v 0.5291666 h -0.762744 v 0.9818518 q 0,0.161231 0.06408,0.219108 0.06408,0.05581 0.254248,0.05581 h 0.380339 V 10.95058 H 26.44283 q -0.438216,0 -0.622184,-0.181901 -0.181901,-0.183968 -0.181901,-0.622185 V 9.1646422 H 25.270809 V 8.6354756 h 0.367936 V 7.9781514 Z"
         style="stroke-width:0.26458332"
         id="path90"
         inkscape:connector-curvature="0" />
      <path
         d="m 28.697989,9.1088317 q -0.24598,0 -0.376205,0.1777669 -0.128157,0.1756999 -0.128157,0.5084961 0,0.3327963 0.128157,0.5105633 0.130225,0.1757 0.376205,0.1757 0.241845,0 0.370003,-0.1757 0.128157,-0.177767 0.128157,-0.5105633 0,-0.3327962 -0.128157,-0.5084961 -0.128158,-0.1777669 -0.370003,-0.1777669 z m 0,-0.5291666 q 0.597379,0 0.932242,0.3224609 0.336931,0.3224609 0.336931,0.8929687 0,0.5705073 -0.336931,0.8929683 -0.334863,0.322461 -0.932242,0.322461 -0.599447,0 -0.938444,-0.322461 -0.336931,-0.322461 -0.336931,-0.8929683 0,-0.5705078 0.336931,-0.8929687 0.338997,-0.3224609 0.938444,-0.3224609 z"
         style="stroke-width:0.26458332"
         id="path92"
         inkscape:connector-curvature="0" />
    </g>
    <g
       aria-label="CV in"
       style="font-style:normal;font-variant:normal;font-weight:bold;font-stretch:normal;font-size:3.52777767px;line-height:1.25;font-family:sans-serif;-inkscape-font-specification:'sans-serif Bold';letter-spacing:0px;word-spacing:0px;fill:#000000;fill-opacity:1;stroke:none;stroke-width:0.26458332"
       id="text176"
       transform="translate(-0.52916667,-7.6729035)">
      <path
         d="m 6.0675021,113.2775 q -0.1825901,0.0947 -0.3806831,0.14297 -0.1980929,0.0482 -0.4134114,0.0482 -0.6425103,0 -1.0180257,-0.35829 -0.3755154,-0.36001 -0.3755154,-0.97496 0,-0.61667 0.3755154,-0.97496 0.3755154,-0.36002 1.0180257,-0.36002 0.2153185,0 0.4134114,0.0482 0.198093,0.0482 0.3806831,0.14297 v 0.53226 q -0.1843126,-0.12574 -0.3634576,-0.18431 -0.1791449,-0.0586 -0.3772379,-0.0586 -0.3548448,0 -0.5581055,0.22737 -0.2032606,0.22738 -0.2032606,0.62701 0,0.39791 0.2032606,0.62528 0.2032607,0.22738 0.5581055,0.22738 0.198093,0 0.3772379,-0.0586 0.179145,-0.0586 0.3634576,-0.18431 z"
         style="stroke-width:0.26458332"
         id="path95"
         inkscape:connector-curvature="0" />
      <path
         d="m 6.312104,110.84698 h 0.6666259 l 0.6821289,1.89825 0.6804063,-1.89825 h 0.666626 l -0.9525689,2.57177 H 7.2646728 Z"
         style="stroke-width:0.26458332"
         id="path97"
         inkscape:connector-curvature="0" />
      <path
         d="m 10.546126,111.48949 h 0.616672 v 1.92926 h -0.616672 z m 0,-0.75103 h 0.616672 v 0.50299 h -0.616672 z"
         style="stroke-width:0.26458332"
         id="path99"
         inkscape:connector-curvature="0" />
      <path
         d="m 13.698389,112.24397 v 1.17478 h -0.620117 v -0.19121 -0.70796 q 0,-0.24977 -0.01206,-0.34451 -0.01034,-0.0947 -0.0379,-0.13953 -0.03617,-0.0603 -0.09819,-0.093 -0.06201,-0.0345 -0.141248,-0.0345 -0.192926,0 -0.303169,0.14986 -0.110243,0.14814 -0.110243,0.41169 v 0.94913 H 11.7588 v -1.92926 h 0.616672 v 0.2825 q 0.139526,-0.16881 0.296278,-0.24805 0.156752,-0.081 0.346232,-0.081 0.334175,0 0.506429,0.20499 0.173978,0.20498 0.173978,0.596 z"
         style="stroke-width:0.26458332"
         id="path101"
         inkscape:connector-curvature="0" />
    </g>
    <g
       aria-label="Out"
       style="font-style:normal;font-variant:normal;font-weight:bold;font-stretch:normal;font-size:3.52777767px;line-height:1.25;font-family:sans-serif;-inkscape-font-specification:'sans-serif Bold';letter-spacing:0px;word-spacing:0px;fill:#ffffff;fill-opacity:1;stroke:none;stroke-width:0.26458332"
       id="text180"
       transform="translate(-1.0054167,-7.9685035)">
      <path
         d="m 20.870733,111.54565 q -0.303169,0 -0.470256,0.22393 -0.167087,0.22393 -0.167087,0.63045 0,0.4048 0.167087,0.62873 0.167087,0.22393 0.470256,0.22393 0.304891,0 0.471978,-0.22393 0.167087,-0.22393 0.167087,-0.62873 0,-0.40652 -0.167087,-0.63045 -0.167087,-0.22393 -0.471978,-0.22393 z m 0,-0.4806 q 0.620117,0 0.971516,0.35485 0.3514,0.35484 0.3514,0.98013 0,0.62356 -0.3514,0.97841 -0.351399,0.35484 -0.971516,0.35484 -0.618395,0 -0.971517,-0.35484 -0.3514,-0.35485 -0.3514,-0.97841 0,-0.62529 0.3514,-0.98013 0.353122,-0.35485 0.971517,-0.35485 z"
         style="fill:#ffffff;stroke-width:0.26458332"
         id="path104"
         inkscape:connector-curvature="0" />
      <path
         d="m 22.644957,112.9323 v -1.17823 h 0.620117 v 0.19293 q 0,0.15675 -0.0017,0.39446 -0.0017,0.23599 -0.0017,0.31523 0,0.23254 0.01206,0.3359 0.01206,0.10163 0.04134,0.14813 0.0379,0.0603 0.09818,0.093 0.06201,0.0327 0.141249,0.0327 0.192925,0 0.303168,-0.14814 0.110243,-0.14814 0.110243,-0.41169 v -0.95257 h 0.616672 v 1.92926 h -0.616672 v -0.27906 q -0.139526,0.16881 -0.296278,0.24977 -0.155029,0.0792 -0.342787,0.0792 -0.334174,0 -0.509874,-0.20498 -0.173977,-0.20499 -0.173977,-0.596 z"
         style="fill:#ffffff;stroke-width:0.26458332"
         id="path106"
         inkscape:connector-curvature="0" />
      <path
         d="m 25.854063,111.2063 v 0.54777 h 0.63562 v 0.44098 h -0.63562 v 0.81821 q 0,0.13435 0.0534,0.18259 0.0534,0.0465 0.211873,0.0465 h 0.316949 v 0.44098 h -0.528822 q -0.36518,0 -0.518487,-0.15159 -0.151584,-0.1533 -0.151584,-0.51848 v -0.81821 h -0.306613 v -0.44098 h 0.306613 v -0.54777 z"
         style="fill:#ffffff;stroke-width:0.26458332"
         id="path108"
         inkscape:connector-curvature="0" />
    </g>
    <g
       transform="translate(0.23902152,2.9026661)"
       aria-label="Enable "
       style="font-style:normal;font-variant:normal;font-weight:bold;font-stretch:normal;font-size:3.52777767px;line-height:1.25;font-family:sans-serif;-inkscape-font-specification:'sans-serif Bold';letter-spacing:0px;word-spacing:0px;display:inline;fill:#000000;fill-opacity:1;stroke:none;stroke-width:0.26458332"
       id="text87">
      <path
         d="m 8.7905052,49.463652 h 1.7897268 v 0.501261 H 9.453686 v 0.478869 h 1.059367 v 0.501261 H 9.453686 v 0.589111 h 1.164442 v 0.501262 H 8.7905052 Z"
         style="stroke-width:0.26458332"
         id="path91"
         inkscape:connector-curvature="0" />
      <path
         d="m 13.1141,50.860638 v 1.174778 h -0.620117 v -0.191203 -0.707967 q 0,-0.24977 -0.01206,-0.34451 -0.01033,-0.09474 -0.0379,-0.139526 -0.03617,-0.06029 -0.09819,-0.09302 -0.06201,-0.03445 -0.141249,-0.03445 -0.192926,0 -0.303169,0.149862 -0.110243,0.148139 -0.110243,0.411689 v 0.949124 H 11.1745 v -1.929254 h 0.616672 v 0.282498 q 0.139527,-0.16881 0.296278,-0.248047 0.156752,-0.08096 0.346233,-0.08096 0.334174,0 0.506429,0.204984 0.173977,0.204983 0.173977,0.596001 z"
         style="stroke-width:0.26458332"
         id="path93"
         inkscape:connector-curvature="0" />
      <path
         d="m 14.554149,51.167252 q -0.192925,0 -0.29111,0.06546 -0.09646,0.06546 -0.09646,0.192926 0,0.117133 0.07752,0.184312 0.07924,0.06546 0.218763,0.06546 0.173978,0 0.292833,-0.124023 0.118856,-0.125746 0.118856,-0.313504 v -0.07062 z m 0.942234,-0.232544 v 1.100708 h -0.62184 v -0.285943 q -0.124023,0.1757 -0.279052,0.256659 -0.15503,0.07924 -0.377238,0.07924 -0.299724,0 -0.487481,-0.173978 -0.186036,-0.1757 -0.186036,-0.454752 0,-0.339342 0.232544,-0.497817 0.234267,-0.158474 0.733806,-0.158474 h 0.363457 v -0.04823 q 0,-0.146417 -0.11541,-0.213596 -0.115411,-0.0689 -0.360013,-0.0689 -0.198093,0 -0.368625,0.03962 -0.170532,0.03962 -0.316949,0.118856 v -0.470255 q 0.198093,-0.04823 0.397909,-0.07235 0.199815,-0.02584 0.399631,-0.02584 0.521932,0 0.752753,0.206706 0.232544,0.204983 0.232544,0.668349 z"
         style="stroke-width:0.26458332"
         id="path96"
         inkscape:connector-curvature="0" />
      <path
         d="m 17.100075,51.637507 q 0.198093,0 0.301446,-0.144694 0.105076,-0.144694 0.105076,-0.420302 0,-0.275607 -0.105076,-0.420301 -0.103353,-0.144694 -0.301446,-0.144694 -0.198093,0 -0.304891,0.146416 -0.105075,0.144694 -0.105075,0.418579 0,0.273886 0.105075,0.420302 0.106798,0.144694 0.304891,0.144694 z M 16.690109,50.38866 q 0.127469,-0.16881 0.282498,-0.248047 0.155029,-0.08096 0.356567,-0.08096 0.356568,0 0.585666,0.284221 0.229099,0.282498 0.229099,0.728637 0,0.44614 -0.229099,0.730361 -0.229098,0.282498 -0.585666,0.282498 -0.201538,0 -0.356567,-0.07924 -0.155029,-0.08096 -0.282498,-0.249769 v 0.279053 h -0.616672 v -2.680285 h 0.616672 z"
         style="stroke-width:0.26458332"
         id="path98"
         inkscape:connector-curvature="0" />
      <path
         d="m 18.602137,49.355131 h 0.616672 v 2.680285 h -0.616672 z"
         style="stroke-width:0.26458332"
         id="path100"
         inkscape:connector-curvature="0" />
      <path
         d="m 21.740618,51.065621 v 0.1757 h -1.441772 q 0.02239,0.217041 0.156752,0.325562 0.134358,0.10852 0.375515,0.10852 0.194648,0 0.397909,-0.05684 0.204983,-0.05857 0.420301,-0.1757 v 0.475423 q -0.218763,0.08268 -0.437527,0.124024 -0.218763,0.04306 -0.437527,0.04306 -0.523654,0 -0.814765,-0.265273 -0.289388,-0.266995 -0.289388,-0.747586 0,-0.471978 0.28422,-0.742418 0.285943,-0.27044 0.785482,-0.27044 0.454753,0 0.726915,0.273886 0.273885,0.273885 0.273885,0.732082 z m -0.633897,-0.204983 q 0,-0.1757 -0.103353,-0.282498 -0.10163,-0.10852 -0.266995,-0.10852 -0.179145,0 -0.291111,0.10163 -0.111965,0.09991 -0.139526,0.289388 z"
         style="stroke-width:0.26458332"
         id="path102"
         inkscape:connector-curvature="0" />
    </g>
    <g
       aria-label="Rate"
       style="font-style:normal;font-variant:normal;font-weight:bold;font-stretch:normal;font-size:3.52777767px;line-height:1.25;font-family:sans-serif;-inkscape-font-specification:'sans-serif Bold';letter-spacing:0px;word-spacing:0px;display:inline;fill:#000000;fill-opacity:1;stroke:none;stroke-width:0.26458332"
       id="text140"
       transform="translate(-0.15875067,-163.79948)">
      <path
         d="m 12.104275,187.88312 q 0.208428,0 0.298001,-0.0775 0.09129,-0.0775 0.09129,-0.25494 0,-0.1757 -0.09129,-0.25149 -0.08957,-0.0758 -0.298001,-0.0758 h -0.279053 v 0.65973 z m -0.279053,0.4582 v 0.97324 h -0.663181 v -2.57176 h 1.012858 q 0.508152,0 0.744141,0.17053 0.237712,0.17053 0.237712,0.53916 0,0.25493 -0.124024,0.41857 -0.122301,0.16365 -0.370348,0.24116 0.136082,0.031 0.24288,0.14125 0.10852,0.10852 0.218763,0.33073 l 0.360013,0.73036 h -0.706245 l -0.313504,-0.63907 q -0.09474,-0.19292 -0.192925,-0.26355 -0.09646,-0.0706 -0.258382,-0.0706 z"
         style="stroke-width:0.26458332"
         id="path142"
         inkscape:connector-curvature="0" />
      <path
         d="m 14.713935,188.4464 q -0.192925,0 -0.291111,0.0654 -0.09646,0.0655 -0.09646,0.19293 0,0.11713 0.07751,0.18431 0.07924,0.0655 0.218764,0.0655 0.173977,0 0.292833,-0.12403 0.118856,-0.12574 0.118856,-0.3135 v -0.0706 z m 0.942233,-0.23255 v 1.10071 h -0.621839 v -0.28594 q -0.124024,0.1757 -0.279053,0.25666 -0.155029,0.0792 -0.377238,0.0792 -0.299723,0 -0.487481,-0.17397 -0.186035,-0.1757 -0.186035,-0.45476 0,-0.33934 0.232544,-0.49781 0.234266,-0.15848 0.733805,-0.15848 h 0.363458 v -0.0482 q 0,-0.14641 -0.115411,-0.21359 -0.115411,-0.0689 -0.360012,-0.0689 -0.198093,0 -0.368626,0.0396 -0.170532,0.0396 -0.316948,0.11886 v -0.47026 q 0.198093,-0.0482 0.397908,-0.0723 0.199816,-0.0258 0.399631,-0.0258 0.521932,0 0.752754,0.2067 0.232543,0.20499 0.232543,0.66835 z"
         style="stroke-width:0.26458332"
         id="path144"
         inkscape:connector-curvature="0" />
      <path
         d="m 16.906738,186.83754 v 0.54777 h 0.63562 v 0.44097 h -0.63562 v 0.81821 q 0,0.13436 0.0534,0.18259 0.0534,0.0465 0.211874,0.0465 h 0.316948 v 0.44097 h -0.528822 q -0.36518,0 -0.518487,-0.15158 -0.151584,-0.15331 -0.151584,-0.51849 v -0.81821 h -0.306613 v -0.44097 h 0.306613 v -0.54777 z"
         style="stroke-width:0.26458332"
         id="path146"
         inkscape:connector-curvature="0" />
      <path
         d="m 19.847127,188.34477 v 0.1757 h -1.441772 q 0.02239,0.21704 0.156751,0.32556 0.134359,0.10852 0.375516,0.10852 0.194648,0 0.397908,-0.0569 0.204984,-0.0586 0.420302,-0.1757 v 0.47543 q -0.218764,0.0827 -0.437527,0.12402 -0.218764,0.0431 -0.437527,0.0431 -0.523655,0 -0.814765,-0.26527 -0.289388,-0.26699 -0.289388,-0.74758 0,-0.47198 0.28422,-0.74242 0.285943,-0.27044 0.785482,-0.27044 0.454752,0 0.726915,0.27388 0.273885,0.27389 0.273885,0.73209 z m -0.633897,-0.20499 q 0,-0.1757 -0.103353,-0.2825 -0.101631,-0.10852 -0.266995,-0.10852 -0.179145,0 -0.291111,0.10163 -0.111965,0.0999 -0.139526,0.28939 z"
         style="stroke-width:0.26458332"
         id="path148"
         inkscape:connector-curvature="0" />
    </g>
  </g>
  <g
     inkscape:groupmode="layer"
     id="layer2"
     inkscape:label="components"
     style="display:none">
    <circle
       style="display:inline;opacity:1;vector-effect:none;fill:#ff0000;fill-opacity:1;fill-rule:evenodd;stroke:none;stroke-width:1;stroke-linecap:butt;stroke-linejoin:miter;stroke-miterlimit:4;stroke-dasharray:none;stroke-dashoffset:0;stroke-opacity:1;paint-order:normal"
       id="path4954"
       cx="15.504583"
       cy="38.299011"
       r="4"
       inkscape:label="time" />
    <circle
       r="4"
       cy="112.00806"
       cx="8.2599611"
       id="circle4956"
       style="display:inline;opacity:1;vector-effect:none;fill:#00ff00;fill-opacity:1;fill-rule:evenodd;stroke:none;stroke-width:1;stroke-linecap:butt;stroke-linejoin:miter;stroke-miterlimit:4;stroke-dasharray:none;stroke-dashoffset:0;stroke-opacity:1;paint-order:normal"
       inkscape:label="cv" />
    <circle
       style="display:inline;opacity:1;vector-effect:none;fill:#0000ff;fill-opacity:1;fill-rule:evenodd;stroke:none;stroke-width:1;stroke-linecap:butt;stroke-linejoin:miter;stroke-miterlimit:4;stroke-dasharray:none;stroke-dashoffset:0;stroke-opacity:1;paint-order:normal"
       id="circle4958"
       cx="22.225"
       cy="112.00806"
       r="4"
       inkscape:label="cv"
       inkscape:transform-center-x="-0.53453914"
       inkscape:transform-center-y="1.870887" />
    <circle
       style="display:inline;opacity:1;vector-effect:none;fill:#ff0000;fill-opacity:1;fill-rule:evenodd;stroke:none;stroke-width:1;stroke-linecap:butt;stroke-linejoin:miter;stroke-miterlimit:4;stroke-dasharray:none;stroke-dashoffset:0;stroke-opacity:1;paint-order:normal"
       id="path4954-3"
       cx="15.504583"
       cy="61.074978"
       r="4"
       inkscape:label="on" />
    <circle
       style="display:inline;opacity:1;vector-effect:none;fill:#ff00ff;fill-opacity:1;fill-rule:evenodd;stroke:none;stroke-width:0.33854231;stroke-linecap:butt;stroke-linejoin:miter;stroke-miterlimit:4;stroke-dasharray:none;stroke-dashoffset:0;stroke-opacity:1;paint-order:normal"
       id="path4954-3-3-6"
       cx="6.8791666"
       cy="61.074978"
       r="1.3541692"
       inkscape:label="enabled" />
  </g>
</svg>
