<?xml version="1.0" encoding="UTF-8" standalone="no"?>
<!-- Created with Inkscape (http://www.inkscape.org/) -->

<svg
   xmlns:dc="http://purl.org/dc/elements/1.1/"
   xmlns:cc="http://creativecommons.org/ns#"
   xmlns:rdf="http://www.w3.org/1999/02/22-rdf-syntax-ns#"
   xmlns:svg="http://www.w3.org/2000/svg"
   xmlns="http://www.w3.org/2000/svg"
   xmlns:sodipodi="http://sodipodi.sourceforge.net/DTD/sodipodi-0.dtd"
   xmlns:inkscape="http://www.inkscape.org/namespaces/inkscape"
   width="30.48mm"
   height="128.5mm"
   viewBox="0 0 30.480002 128.50002"
   version="1.1"
   id="svg8"
   inkscape:version="0.92.3 (2405546, 2018-03-11)"
   sodipodi:docname="Quantizer.svg">
  <defs
     id="defs2" />
  <sodipodi:namedview
     id="base"
     pagecolor="#ffffff"
     bordercolor="#666666"
     borderopacity="1.0"
     inkscape:pageopacity="0.0"
     inkscape:pageshadow="2"
     inkscape:zoom="1"
     inkscape:cx="-36.100003"
     inkscape:cy="247.81468"
     inkscape:document-units="mm"
     inkscape:current-layer="layer3"
     showgrid="false"
     units="mm"
     inkscape:snap-bbox="true"
     inkscape:snap-page="true"
     inkscape:bbox-nodes="false"
     inkscape:snap-bbox-edge-midpoints="false"
     inkscape:window-width="950"
     inkscape:window-height="667"
     inkscape:window-x="405"
     inkscape:window-y="39"
     inkscape:window-maximized="0"
     inkscape:snap-bbox-midpoints="true"
     inkscape:snap-nodes="false"
     inkscape:snap-text-baseline="true"
     inkscape:lockguides="false">
    <inkscape:grid
       type="xygrid"
       id="grid125" />
  </sodipodi:namedview>
  <metadata
     id="metadata5">
    <rdf:RDF>
      <cc:Work
         rdf:about="">
        <dc:format>image/svg+xml</dc:format>
        <dc:type
           rdf:resource="http://purl.org/dc/dcmitype/StillImage" />
        <dc:title />
      </cc:Work>
    </rdf:RDF>
  </metadata>
  <g
     inkscape:label="Layer 1"
     inkscape:groupmode="layer"
     id="layer1"
     transform="translate(0,-168.49998)"
     style="display:inline">
    <rect
       style="display:inline;opacity:1;vector-effect:none;fill:#e6e6e6;fill-opacity:1;fill-rule:evenodd;stroke:none;stroke-width:0.64935839;stroke-linecap:butt;stroke-linejoin:miter;stroke-miterlimit:4;stroke-dasharray:none;stroke-dashoffset:0;stroke-opacity:1;paint-order:normal"
       id="rect420"
       width="30.48"
       height="128.5"
       x="0.26458335"
       y="168.76454" />
    <flowRoot
       xml:space="preserve"
       id="flowRoot109"
       style="font-style:normal;font-weight:normal;font-size:40px;line-height:1.25;font-family:sans-serif;letter-spacing:0px;word-spacing:0px;fill:#000000;fill-opacity:1;stroke:none"><flowRegion
         id="flowRegion111"><rect
           id="rect113"
           width="124"
           height="73"
           x="177"
           y="292.66928" /></flowRegion><flowPara
         id="flowPara115" /></flowRoot>    <flowRoot
       xml:space="preserve"
       id="flowRoot117"
       style="font-style:normal;font-weight:normal;font-size:40px;line-height:1.25;font-family:sans-serif;letter-spacing:0px;word-spacing:0px;fill:#000000;fill-opacity:1;stroke:none"
       transform="matrix(0.26458333,0,0,0.26458333,0,168.49998)"><flowRegion
         id="flowRegion119"><rect
           id="rect121"
           width="171"
           height="96"
           x="163"
           y="131.6693" /></flowRegion><flowPara
         id="flowPara123" /></flowRoot>    <flowRoot
       xml:space="preserve"
       id="flowRoot125"
       style="font-style:normal;font-weight:normal;font-size:10.66666698px;line-height:1.25;font-family:sans-serif;letter-spacing:0px;word-spacing:0px;fill:#000000;fill-opacity:1;stroke:none"
       transform="matrix(0.26458333,0,0,0.26458333,0,168.49998)"><flowRegion
         id="flowRegion127"><rect
           id="rect129"
           width="53"
           height="23"
           x="183"
           y="120.66929" /></flowRegion><flowPara
         id="flowPara131" /></flowRoot>    <flowRoot
       xml:space="preserve"
       id="flowRoot133"
       style="font-style:normal;font-weight:normal;font-size:10.66666698px;line-height:1.25;font-family:sans-serif;letter-spacing:0px;word-spacing:0px;fill:#000000;fill-opacity:1;stroke:none"
       transform="matrix(0.26458333,0,0,0.26458333,0,168.49998)"><flowRegion
         id="flowRegion135"><rect
           id="rect137"
           width="20"
           height="12"
           x="222"
           y="177.6693" /></flowRegion><flowPara
         id="flowPara139" /></flowRoot>    <flowRoot
       xml:space="preserve"
       id="flowRoot141"
       style="font-style:normal;font-weight:normal;font-size:10.66666698px;line-height:1.25;font-family:sans-serif;letter-spacing:0px;word-spacing:0px;fill:#000000;fill-opacity:1;stroke:none"
       transform="matrix(0.26458333,0,0,0.26458333,1.5875,169.55831)"><flowRegion
         id="flowRegion143"><rect
           id="rect145"
           width="37"
           height="15"
           x="69"
           y="376.66928" /></flowRegion><flowPara
         id="flowPara147" /></flowRoot>    <flowRoot
       xml:space="preserve"
       id="flowRoot149"
       style="font-style:normal;font-weight:normal;font-size:10.66666698px;line-height:1.25;font-family:sans-serif;letter-spacing:0px;word-spacing:0px;fill:#000000;fill-opacity:1;stroke:none"
       transform="matrix(0.26458333,0,0,0.26458333,2.1166667,168.2354)"><flowRegion
         id="flowRegion151"><rect
           id="rect153"
           width="31"
           height="15"
           x="69"
           y="337.66928" /></flowRegion><flowPara
         id="flowPara157" /></flowRoot>    <flowRoot
       xml:space="preserve"
       id="flowRoot159"
       style="font-style:normal;font-weight:normal;font-size:10.66666698px;line-height:1.25;font-family:sans-serif;letter-spacing:0px;word-spacing:0px;fill:#000000;fill-opacity:1;stroke:none"
       transform="matrix(0.26458333,0,0,0.26458333,0,168.49998)"><flowRegion
         id="flowRegion161"><rect
           id="rect163"
           width="35"
           height="11"
           x="68"
           y="427.66928" /></flowRegion><flowPara
         id="flowPara165">RootR</flowPara></flowRoot>    <flowRoot
       xml:space="preserve"
       id="flowRoot167"
       style="font-style:normal;font-weight:normal;font-size:13.33333397px;line-height:1.25;font-family:sans-serif;letter-spacing:0px;word-spacing:0px;fill:#000000;fill-opacity:1;stroke:none"
       transform="matrix(0.26458333,0,0,0.26458333,4.2333333,170.35206)"><flowRegion
         id="flowRegion169"
         style="font-size:13.33333397px"><rect
           id="rect171"
           width="52"
           height="22"
           x="51"
           y="416.66928"
           style="font-size:13.33333397px" /></flowRegion><flowPara
         id="flowPara173" /></flowRoot>    <flowRoot
       xml:space="preserve"
       id="flowRoot175"
       style="font-style:normal;font-weight:normal;font-size:16px;line-height:1.25;font-family:sans-serif;letter-spacing:0px;word-spacing:0px;fill:#000000;fill-opacity:1;stroke:none"
       transform="matrix(0.26458333,0,0,0.26458333,16.404167,135.16248)"><flowRegion
         id="flowRegion177"
         style="font-size:16px;fill:#000000"><rect
           id="rect179"
           width="0.9999994"
           height="1.9999995"
           x="11"
           y="322.66928"
           style="font-size:16px;fill:#000000" /></flowRegion><flowPara
         id="flowPara181" /></flowRoot>    <flowRoot
       xml:space="preserve"
       id="flowRoot183"
       style="font-style:normal;font-weight:normal;font-size:10.66666698px;line-height:1.25;font-family:sans-serif;letter-spacing:0px;word-spacing:0px;fill:#000000;fill-opacity:1;stroke:none"><flowRegion
         id="flowRegion185"><rect
           id="rect187"
           width="111"
           height="72"
           x="-129"
           y="127.66929" /></flowRegion><flowPara
         id="flowPara189" /></flowRoot>    <text
       xml:space="preserve"
       style="font-style:normal;font-weight:normal;font-size:3.52777767px;line-height:1.25;font-family:sans-serif;letter-spacing:0px;word-spacing:0px;fill:#ff0000;fill-opacity:1;stroke:none;stroke-width:0.26458332"
       x="-3.5527137e-15"
       y="273.9812"
       id="text3906"><tspan
         sodipodi:role="line"
         id="tspan3904"
         x="-3.5527137e-15"
         y="277.10245"
         style="font-size:3.52777767px;fill:#ff0000;stroke-width:0.26458332" /></text>
    <rect
       style="fill:#000000;stroke-width:0.13817421"
       id="rect3908"
       width="10.583334"
       height="15.875024"
       x="16.933334"
       y="270.32156"
       ry="1.5502768e-14" />
    <flowRoot
       xml:space="preserve"
       id="flowRoot110"
       style="font-style:normal;font-weight:normal;font-size:16px;line-height:1.25;font-family:sans-serif;letter-spacing:0px;word-spacing:0px;fill:#000000;fill-opacity:1;stroke:none"
       transform="matrix(0.26458333,0,0,0.26458333,0,168.49998)"><flowRegion
         id="flowRegion112"><rect
           id="rect114"
           width="11"
           height="23"
           x="-145"
           y="5.6692915" /></flowRegion><flowPara
         id="flowPara116">My</flowPara></flowRoot>    <rect
       style="display:inline;fill:#aa0000;fill-opacity:1;fill-rule:evenodd;stroke:#cccccc;stroke-width:0.231538"
       id="rect97"
       width="1.6205453"
       height="129.41428"
       x="28.293894"
       y="168.26361"
       ry="7.0395553e-14" />
  </g>
  <g
     inkscape:groupmode="layer"
     id="layer3"
     inkscape:label="text"
     style="display:inline">
    <g
       transform="scale(0.26458333)"
       style="font-style:normal;font-weight:normal;font-size:16px;line-height:1.25;font-family:sans-serif;letter-spacing:0px;word-spacing:0px;fill:#000000;fill-opacity:1;stroke:none"
       id="flowRoot96" />
    <g
       style="font-style:normal;font-weight:normal;font-size:4.23333311px;line-height:1.25;font-family:sans-serif;letter-spacing:0px;word-spacing:0px;fill:#000000;fill-opacity:1;stroke:none;stroke-width:0.26458332"
       id="text108" />
    <g
       aria-label="CV in"
       style="font-style:normal;font-variant:normal;font-weight:bold;font-stretch:normal;font-size:3.52777767px;line-height:1.25;font-family:sans-serif;-inkscape-font-specification:'sans-serif Bold';letter-spacing:0px;word-spacing:0px;fill:#000000;fill-opacity:1;stroke:none;stroke-width:0.26458332"
       id="text176"
       transform="translate(-0.52916667,-7.6729035)">
      <path
         d="m 6.0675021,113.2775 q -0.1825901,0.0947 -0.3806831,0.14297 -0.1980929,0.0482 -0.4134114,0.0482 -0.6425103,0 -1.0180257,-0.35829 -0.3755154,-0.36001 -0.3755154,-0.97496 0,-0.61667 0.3755154,-0.97496 0.3755154,-0.36002 1.0180257,-0.36002 0.2153185,0 0.4134114,0.0482 0.198093,0.0482 0.3806831,0.14297 v 0.53226 q -0.1843126,-0.12574 -0.3634576,-0.18431 -0.1791449,-0.0586 -0.3772379,-0.0586 -0.3548448,0 -0.5581055,0.22737 -0.2032606,0.22738 -0.2032606,0.62701 0,0.39791 0.2032606,0.62528 0.2032607,0.22738 0.5581055,0.22738 0.198093,0 0.3772379,-0.0586 0.179145,-0.0586 0.3634576,-0.18431 z"
         style="stroke-width:0.26458332"
         id="path95"
         inkscape:connector-curvature="0" />
      <path
         d="m 6.312104,110.84698 h 0.6666259 l 0.6821289,1.89825 0.6804063,-1.89825 h 0.666626 l -0.9525689,2.57177 H 7.2646728 Z"
         style="stroke-width:0.26458332"
         id="path97"
         inkscape:connector-curvature="0" />
      <path
         d="m 10.546126,111.48949 h 0.616672 v 1.92926 h -0.616672 z m 0,-0.75103 h 0.616672 v 0.50299 h -0.616672 z"
         style="stroke-width:0.26458332"
         id="path99"
         inkscape:connector-curvature="0" />
      <path
         d="m 13.698389,112.24397 v 1.17478 h -0.620117 v -0.19121 -0.70796 q 0,-0.24977 -0.01206,-0.34451 -0.01034,-0.0947 -0.0379,-0.13953 -0.03617,-0.0603 -0.09819,-0.093 -0.06201,-0.0345 -0.141248,-0.0345 -0.192926,0 -0.303169,0.14986 -0.110243,0.14814 -0.110243,0.41169 v 0.94913 H 11.7588 v -1.92926 h 0.616672 v 0.2825 q 0.139526,-0.16881 0.296278,-0.24805 0.156752,-0.081 0.346232,-0.081 0.334175,0 0.506429,0.20499 0.173978,0.20498 0.173978,0.596 z"
         style="stroke-width:0.26458332"
         id="path101"
         inkscape:connector-curvature="0" />
    </g>
    <g
       aria-label="Out"
       style="font-style:normal;font-variant:normal;font-weight:bold;font-stretch:normal;font-size:3.52777767px;line-height:1.25;font-family:sans-serif;-inkscape-font-specification:'sans-serif Bold';letter-spacing:0px;word-spacing:0px;fill:#ffffff;fill-opacity:1;stroke:none;stroke-width:0.26458332"
       id="text180"
       transform="translate(-1.0054167,-7.9685035)">
      <path
         d="m 20.870733,111.54565 q -0.303169,0 -0.470256,0.22393 -0.167087,0.22393 -0.167087,0.63045 0,0.4048 0.167087,0.62873 0.167087,0.22393 0.470256,0.22393 0.304891,0 0.471978,-0.22393 0.167087,-0.22393 0.167087,-0.62873 0,-0.40652 -0.167087,-0.63045 -0.167087,-0.22393 -0.471978,-0.22393 z m 0,-0.4806 q 0.620117,0 0.971516,0.35485 0.3514,0.35484 0.3514,0.98013 0,0.62356 -0.3514,0.97841 -0.351399,0.35484 -0.971516,0.35484 -0.618395,0 -0.971517,-0.35484 -0.3514,-0.35485 -0.3514,-0.97841 0,-0.62529 0.3514,-0.98013 0.353122,-0.35485 0.971517,-0.35485 z"
         style="fill:#ffffff;stroke-width:0.26458332"
         id="path104"
         inkscape:connector-curvature="0" />
      <path
         d="m 22.644957,112.9323 v -1.17823 h 0.620117 v 0.19293 q 0,0.15675 -0.0017,0.39446 -0.0017,0.23599 -0.0017,0.31523 0,0.23254 0.01206,0.3359 0.01206,0.10163 0.04134,0.14813 0.0379,0.0603 0.09818,0.093 0.06201,0.0327 0.141249,0.0327 0.192925,0 0.303168,-0.14814 0.110243,-0.14814 0.110243,-0.41169 v -0.95257 h 0.616672 v 1.92926 h -0.616672 v -0.27906 q -0.139526,0.16881 -0.296278,0.24977 -0.155029,0.0792 -0.342787,0.0792 -0.334174,0 -0.509874,-0.20498 -0.173977,-0.20499 -0.173977,-0.596 z"
         style="fill:#ffffff;stroke-width:0.26458332"
         id="path106"
         inkscape:connector-curvature="0" />
      <path
         d="m 25.854063,111.2063 v 0.54777 h 0.63562 v 0.44098 h -0.63562 v 0.81821 q 0,0.13435 0.0534,0.18259 0.0534,0.0465 0.211873,0.0465 h 0.316949 v 0.44098 h -0.528822 q -0.36518,0 -0.518487,-0.15159 -0.151584,-0.1533 -0.151584,-0.51848 v -0.81821 h -0.306613 v -0.44098 h 0.306613 v -0.54777 z"
         style="fill:#ffffff;stroke-width:0.26458332"
         id="path108"
         inkscape:connector-curvature="0" />
    </g>
    <g
       transform="translate(0.23902152,2.9026661)"
       aria-label="Enable "
       style="font-style:normal;font-variant:normal;font-weight:bold;font-stretch:normal;font-size:3.52777767px;line-height:1.25;font-family:sans-serif;-inkscape-font-specification:'sans-serif Bold';letter-spacing:0px;word-spacing:0px;display:inline;fill:#000000;fill-opacity:1;stroke:none;stroke-width:0.26458332"
       id="text87">
      <path
         d="m 8.7905052,49.463652 h 1.7897268 v 0.501261 H 9.453686 v 0.478869 h 1.059367 v 0.501261 H 9.453686 v 0.589111 h 1.164442 v 0.501262 H 8.7905052 Z"
         style="stroke-width:0.26458332"
         id="path91"
         inkscape:connector-curvature="0" />
      <path
         d="m 13.1141,50.860638 v 1.174778 h -0.620117 v -0.191203 -0.707967 q 0,-0.24977 -0.01206,-0.34451 -0.01033,-0.09474 -0.0379,-0.139526 -0.03617,-0.06029 -0.09819,-0.09302 -0.06201,-0.03445 -0.141249,-0.03445 -0.192926,0 -0.303169,0.149862 -0.110243,0.148139 -0.110243,0.411689 v 0.949124 H 11.1745 v -1.929254 h 0.616672 v 0.282498 q 0.139527,-0.16881 0.296278,-0.248047 0.156752,-0.08096 0.346233,-0.08096 0.334174,0 0.506429,0.204984 0.173977,0.204983 0.173977,0.596001 z"
         style="stroke-width:0.26458332"
         id="path93"
         inkscape:connector-curvature="0" />
      <path
         d="m 14.554149,51.167252 q -0.192925,0 -0.29111,0.06546 -0.09646,0.06546 -0.09646,0.192926 0,0.117133 0.07752,0.184312 0.07924,0.06546 0.218763,0.06546 0.173978,0 0.292833,-0.124023 0.118856,-0.125746 0.118856,-0.313504 v -0.07062 z m 0.942234,-0.232544 v 1.100708 h -0.62184 v -0.285943 q -0.124023,0.1757 -0.279052,0.256659 -0.15503,0.07924 -0.377238,0.07924 -0.299724,0 -0.487481,-0.173978 -0.186036,-0.1757 -0.186036,-0.454752 0,-0.339342 0.232544,-0.497817 0.234267,-0.158474 0.733806,-0.158474 h 0.363457 v -0.04823 q 0,-0.146417 -0.11541,-0.213596 -0.115411,-0.0689 -0.360013,-0.0689 -0.198093,0 -0.368625,0.03962 -0.170532,0.03962 -0.316949,0.118856 v -0.470255 q 0.198093,-0.04823 0.397909,-0.07235 0.199815,-0.02584 0.399631,-0.02584 0.521932,0 0.752753,0.206706 0.232544,0.204983 0.232544,0.668349 z"
         style="stroke-width:0.26458332"
         id="path96"
         inkscape:connector-curvature="0" />
      <path
         d="m 17.100075,51.637507 q 0.198093,0 0.301446,-0.144694 0.105076,-0.144694 0.105076,-0.420302 0,-0.275607 -0.105076,-0.420301 -0.103353,-0.144694 -0.301446,-0.144694 -0.198093,0 -0.304891,0.146416 -0.105075,0.144694 -0.105075,0.418579 0,0.273886 0.105075,0.420302 0.106798,0.144694 0.304891,0.144694 z M 16.690109,50.38866 q 0.127469,-0.16881 0.282498,-0.248047 0.155029,-0.08096 0.356567,-0.08096 0.356568,0 0.585666,0.284221 0.229099,0.282498 0.229099,0.728637 0,0.44614 -0.229099,0.730361 -0.229098,0.282498 -0.585666,0.282498 -0.201538,0 -0.356567,-0.07924 -0.155029,-0.08096 -0.282498,-0.249769 v 0.279053 h -0.616672 v -2.680285 h 0.616672 z"
         style="stroke-width:0.26458332"
         id="path98"
         inkscape:connector-curvature="0" />
      <path
         d="m 18.602137,49.355131 h 0.616672 v 2.680285 h -0.616672 z"
         style="stroke-width:0.26458332"
         id="path100"
         inkscape:connector-curvature="0" />
      <path
         d="m 21.740618,51.065621 v 0.1757 h -1.441772 q 0.02239,0.217041 0.156752,0.325562 0.134358,0.10852 0.375515,0.10852 0.194648,0 0.397909,-0.05684 0.204983,-0.05857 0.420301,-0.1757 v 0.475423 q -0.218763,0.08268 -0.437527,0.124024 -0.218763,0.04306 -0.437527,0.04306 -0.523654,0 -0.814765,-0.265273 -0.289388,-0.266995 -0.289388,-0.747586 0,-0.471978 0.28422,-0.742418 0.285943,-0.27044 0.785482,-0.27044 0.454753,0 0.726915,0.273886 0.273885,0.273885 0.273885,0.732082 z m -0.633897,-0.204983 q 0,-0.1757 -0.103353,-0.282498 -0.10163,-0.10852 -0.266995,-0.10852 -0.179145,0 -0.291111,0.10163 -0.111965,0.09991 -0.139526,0.289388 z"
         style="stroke-width:0.26458332"
         id="path102"
         inkscape:connector-curvature="0" />
    </g>
    <g
       aria-label="Quantizer "
       style="font-style:normal;font-variant:normal;font-weight:bold;font-stretch:normal;font-size:4.23333311px;line-height:1.25;font-family:sans-serif;-inkscape-font-specification:'sans-serif Bold';letter-spacing:0px;word-spacing:0px;fill:#000000;fill-opacity:1;stroke:none;stroke-width:0.26458332"
       id="text103"
       transform="translate(0.26458333,3.96875)">
      <path
         d="m 5.5909765,7.3766438 h -0.062012 q -0.7627441,0 -1.1864908,-0.4216797 -0.4237468,-0.4216797 -0.4237468,-1.1740885 0,-0.7503418 0.4216797,-1.1761555 0.4237467,-0.4258138 1.1658203,-0.4258138 0.7503417,0 1.1678873,0.4216797 0.4196126,0.4216796 0.4196126,1.1802896 0,0.5208984 -0.2232422,0.8971028 Q 6.6493098,7.0541828 6.2317642,7.2443521 L 6.8539484,7.9388833 H 6.0953385 Z M 5.5062272,4.7556152 q -0.3638021,0 -0.5643067,0.2687175 -0.2005045,0.2687174 -0.2005045,0.7565429 0,0.4960937 0.1963704,0.760677 0.1963705,0.2625163 0.5684408,0.2625163 0.3658691,0 0.5663736,-0.2687174 0.2005046,-0.2687175 0.2005046,-0.7544759 0,-0.4878255 -0.2005046,-0.7565429 Q 5.8720963,4.7556152 5.5062272,4.7556152 Z"
         style="stroke-width:0.26458332"
         id="path142"
         inkscape:connector-curvature="0" />
      <path
         d="M 7.635296,6.4195963 V 5.0057292 h 0.7441406 v 0.2315104 q 0,0.1881022 -0.00207,0.4733561 -0.00207,0.2831868 -0.00207,0.3782714 0,0.2790527 0.014469,0.4030762 0.014469,0.1219563 0.049609,0.1777669 0.045475,0.072347 0.1178222,0.1116211 0.074414,0.039274 0.1694987,0.039274 0.2315104,0 0.3638021,-0.1777669 0.1322916,-0.177767 0.1322916,-0.4940267 V 5.0057292 h 0.7400065 v 2.315104 H 9.2227959 V 6.9859699 q -0.1674316,0.2025716 -0.3555338,0.2997233 -0.1860352,0.095085 -0.4113444,0.095085 -0.4010091,0 -0.6118489,-0.2459798 Q 7.635296,6.8888183 7.635296,6.4195963 Z"
         style="stroke-width:0.26458332"
         id="path144"
         inkscape:connector-curvature="0" />
      <path
         d="m 11.715667,6.2790364 q -0.23151,0 -0.349333,0.078548 -0.115755,0.078548 -0.115755,0.2315104 0,0.1405599 0.09302,0.2211751 0.09508,0.078548 0.262516,0.078548 0.208773,0 0.3514,-0.1488282 0.142625,-0.1508947 0.142625,-0.376204 v -0.084749 z m 1.13068,-0.2790527 V 7.3208332 H 12.10014 V 6.9777017 q -0.148829,0.2108398 -0.334864,0.3079915 -0.186035,0.095085 -0.452685,0.095085 -0.359668,0 -0.584977,-0.2087728 -0.223243,-0.2108398 -0.223243,-0.5457031 0,-0.4072103 0.279053,-0.5973795 0.28112,-0.1901693 0.880567,-0.1901693 h 0.436149 v -0.057878 q 0,-0.1756999 -0.138493,-0.2563151 -0.138493,-0.082682 -0.432015,-0.082682 -0.237712,0 -0.44235,0.047542 -0.204639,0.047542 -0.380339,0.142627 V 5.0677409 q 0.237712,-0.057878 0.47749,-0.086816 0.239779,-0.031006 0.479558,-0.031006 0.626318,0 0.903304,0.2480469 0.279052,0.2459798 0.279052,0.8020179 z"
         style="stroke-width:0.26458332"
         id="path146"
         inkscape:connector-curvature="0" />
      <path
         d="m 15.866318,5.9111002 v 1.409733 H 15.122177 V 7.0913899 6.2418294 q 0,-0.2997233 -0.01447,-0.4134115 -0.0124,-0.1136881 -0.04547,-0.1674316 -0.04341,-0.072347 -0.117822,-0.1116211 -0.07441,-0.041341 -0.169499,-0.041341 -0.231511,0 -0.363802,0.1798339 -0.132292,0.1777669 -0.132292,0.4940267 v 1.1389485 h -0.740006 v -2.315104 h 0.740006 v 0.3389973 q 0.167432,-0.2025716 0.355534,-0.2976562 0.188102,-0.097152 0.415478,-0.097152 0.40101,0 0.607715,0.2459798 0.208773,0.2459798 0.208773,0.7152018 z"
         style="stroke-width:0.26458332"
         id="path148"
         inkscape:connector-curvature="0" />
      <path
         d="m 17.364934,4.348405 v 0.6573242 h 0.762744 V 5.5348958 H 17.364934 V 6.516748 q 0,0.1612304 0.06408,0.219108 0.06408,0.055811 0.254248,0.055811 H 18.0636 v 0.5291666 h -0.634587 q -0.438216,0 -0.622184,-0.181901 Q 16.624928,6.9549641 16.624928,6.516748 V 5.5348958 H 16.256992 V 5.0057292 h 0.367936 V 4.348405 Z"
         style="stroke-width:0.26458332"
         id="path150"
         inkscape:connector-curvature="0" />
      <path
         d="m 18.582431,5.0057292 h 0.740006 v 2.315104 h -0.740006 z m 0,-0.901237 h 0.740006 v 0.6035807 h -0.740006 z"
         style="stroke-width:0.26458332"
         id="path152"
         inkscape:connector-curvature="0" />
      <path
         d="m 19.923951,5.0057292 h 2.019515 v 0.5167643 l -1.219563,1.2691731 h 1.219563 V 7.3208332 H 19.872275 V 6.8040689 l 1.219564,-1.2691731 h -1.167888 z"
         style="stroke-width:0.26458332"
         id="path154"
         inkscape:connector-curvature="0" />
      <path
         d="m 24.812542,6.15708 v 0.2108398 h -1.730127 q 0.02687,0.2604492 0.188102,0.3906739 0.16123,0.1302246 0.450618,0.1302246 0.233578,0 0.477491,-0.068213 0.245979,-0.07028 0.504362,-0.2108399 v 0.5705078 q -0.262517,0.099219 -0.525033,0.1488281 -0.262516,0.051677 -0.525032,0.051677 -0.628386,0 -0.977719,-0.3183268 -0.347265,-0.3203939 -0.347265,-0.8971029 0,-0.5663736 0.341064,-0.8909016 0.343132,-0.324528 0.942578,-0.324528 0.545703,0 0.872298,0.3286621 0.328663,0.3286621 0.328663,0.8784989 z M 24.051865,5.9111002 q 0,-0.2108398 -0.124024,-0.3389974 -0.121956,-0.1302246 -0.320394,-0.1302246 -0.214974,0 -0.349332,0.1219564 -0.134359,0.1198893 -0.167432,0.3472656 z"
         style="stroke-width:0.26458332"
         id="path156"
         inkscape:connector-curvature="0" />
      <path
         d="m 27.090439,5.6361816 q -0.09715,-0.045475 -0.194303,-0.066146 -0.09508,-0.022738 -0.192237,-0.022738 -0.285254,0 -0.440283,0.1839681 -0.152962,0.1819011 -0.152962,0.5229655 v 1.0666015 h -0.740007 v -2.315104 h 0.740007 v 0.3803385 q 0.142627,-0.2273763 0.326595,-0.3307292 0.186035,-0.1054199 0.444417,-0.1054199 0.03721,0 0.08062,0.00413 0.04341,0.00207 0.126091,0.012402 z"
         style="stroke-width:0.26458332"
         id="path158"
         inkscape:connector-curvature="0" />
    </g>
    <g
       aria-label="Major"
       style="font-style:normal;font-variant:normal;font-weight:normal;font-stretch:normal;font-size:3.52777767px;line-height:1.25;font-family:sans-serif;-inkscape-font-specification:sans-serif;letter-spacing:0px;word-spacing:0px;display:inline;fill:#000000;fill-opacity:1;stroke:none;stroke-width:0.26458332"
       id="text109"
       transform="translate(-0.26458333,42.333333)">
      <path
         d="m 11.74681,30.90676 h 0.518486 l 0.656291,1.750108 0.659736,-1.750108 h 0.518487 v 2.571763 h -0.339342 v -2.25826 l -0.663181,1.763889 H 12.74761 l -0.663181,-1.763889 v 2.25826 H 11.74681 Z"
         style="font-style:normal;font-variant:normal;font-weight:normal;font-stretch:normal;font-size:3.52777767px;font-family:sans-serif;-inkscape-font-specification:sans-serif;stroke-width:0.26458332"
         id="path131"
         inkscape:connector-curvature="0" />
      <path
         d="m 15.65527,32.508729 q -0.384128,0 -0.532267,0.08785 -0.148139,0.08785 -0.148139,0.299723 0,0.16881 0.110243,0.268718 0.111966,0.09819 0.303168,0.09819 0.26355,0 0.422025,-0.186035 0.160197,-0.187758 0.160197,-0.497817 v -0.07062 z m 0.632175,-0.130914 v 1.100708 H 15.970497 V 33.18569 q -0.108521,0.1757 -0.27044,0.260105 -0.16192,0.08268 -0.396186,0.08268 -0.296279,0 -0.471978,-0.165364 -0.173978,-0.167088 -0.173978,-0.44614 0,-0.325562 0.217041,-0.490926 0.218764,-0.165365 0.651123,-0.165365 h 0.444418 v -0.03101 q 0,-0.218763 -0.144694,-0.337619 -0.142972,-0.120579 -0.403077,-0.120579 -0.165364,0 -0.322116,0.03962 -0.156752,0.03962 -0.301446,0.118856 V 31.63712 q 0.173977,-0.06718 0.337619,-0.09991 0.163642,-0.03445 0.318672,-0.03445 0.418579,0 0.625285,0.217041 0.206705,0.217041 0.206705,0.658013 z"
         style="font-style:normal;font-variant:normal;font-weight:normal;font-stretch:normal;font-size:3.52777767px;font-family:sans-serif;-inkscape-font-specification:sans-serif;stroke-width:0.26458332"
         id="path133"
         inkscape:connector-curvature="0" />
      <path
         d="m 16.942014,31.54927 h 0.316948 v 1.963704 q 0,0.368625 -0.141249,0.53399 -0.139526,0.165365 -0.451307,0.165365 h -0.120578 v -0.268718 h 0.0844 q 0.180868,0 0.246325,-0.0844 0.06546,-0.08268 0.06546,-0.346232 z m 0,-0.751031 h 0.316948 v 0.401354 h -0.316948 z"
         style="font-style:normal;font-variant:normal;font-weight:normal;font-stretch:normal;font-size:3.52777767px;font-family:sans-serif;-inkscape-font-specification:sans-serif;stroke-width:0.26458332"
         id="path135"
         inkscape:connector-curvature="0" />
      <path
         d="m 18.668006,31.771478 q -0.254937,0 -0.403076,0.199816 -0.148139,0.198093 -0.148139,0.544325 0,0.346232 0.146417,0.546048 0.148139,0.198093 0.404798,0.198093 0.253215,0 0.401354,-0.199816 0.148139,-0.199815 0.148139,-0.544325 0,-0.342787 -0.148139,-0.542602 -0.148139,-0.201539 -0.401354,-0.201539 z m 0,-0.268717 q 0.413412,0 0.649401,0.268717 0.235989,0.268718 0.235989,0.744141 0,0.473701 -0.235989,0.744141 -0.235989,0.268717 -0.649401,0.268717 -0.415134,0 -0.651123,-0.268717 -0.234266,-0.27044 -0.234266,-0.744141 0,-0.475423 0.234266,-0.744141 0.235989,-0.268717 0.651123,-0.268717 z"
         style="font-style:normal;font-variant:normal;font-weight:normal;font-stretch:normal;font-size:3.52777767px;font-family:sans-serif;-inkscape-font-specification:sans-serif;stroke-width:0.26458332"
         id="path137"
         inkscape:connector-curvature="0" />
      <path
         d="m 21.194984,31.845548 q -0.0534,-0.03101 -0.117134,-0.04479 -0.06201,-0.0155 -0.137804,-0.0155 -0.268717,0 -0.413411,0.1757 -0.142971,0.173977 -0.142971,0.501261 v 1.016303 H 20.064992 V 31.54927 h 0.318672 v 0.299723 q 0.09991,-0.1757 0.260104,-0.260105 0.160197,-0.08613 0.389296,-0.08613 0.03273,0 0.07235,0.0052 0.03962,0.0034 0.08785,0.01206 z"
         style="font-style:normal;font-variant:normal;font-weight:normal;font-stretch:normal;font-size:3.52777767px;font-family:sans-serif;-inkscape-font-specification:sans-serif;stroke-width:0.26458332"
         id="path139"
         inkscape:connector-curvature="0" />
    </g>
    <g
       aria-label="Chromatic"
       style="font-style:normal;font-variant:normal;font-weight:normal;font-stretch:normal;font-size:3.52777767px;line-height:1.25;font-family:sans-serif;-inkscape-font-specification:sans-serif;letter-spacing:0px;word-spacing:0px;display:inline;fill:#000000;fill-opacity:1;stroke:none;stroke-width:0.26458332"
       id="text117"
       transform="translate(-0.26458333,42.333333)">
      <path
         d="m 13.820757,42.030107 v 0.366903 q -0.1757,-0.163642 -0.375515,-0.244602 -0.198093,-0.08096 -0.422025,-0.08096 -0.440972,0 -0.675238,0.270439 -0.234267,0.268718 -0.234267,0.778592 0,0.508152 0.234267,0.778592 0.234266,0.268717 0.675238,0.268717 0.223932,0 0.422025,-0.08096 0.199815,-0.08096 0.375515,-0.244601 v 0.363457 q -0.18259,0.124024 -0.387573,0.186035 -0.203261,0.06201 -0.430637,0.06201 -0.583944,0 -0.919841,-0.356567 -0.335896,-0.35829 -0.335896,-0.976685 0,-0.620117 0.335896,-0.976684 0.335897,-0.35829 0.919841,-0.35829 0.230821,0 0.434082,0.06201 0.204983,0.06029 0.384128,0.18259 z"
         style="font-style:normal;font-variant:normal;font-weight:normal;font-stretch:normal;font-size:3.52777767px;font-family:sans-serif;-inkscape-font-specification:sans-serif;stroke-width:0.26458332"
         id="path94"
         inkscape:connector-curvature="0" />
      <path
         d="m 15.951549,43.239336 v 1.164442 H 15.6346 v -1.154107 q 0,-0.273885 -0.106798,-0.409966 -0.106798,-0.136081 -0.320394,-0.136081 -0.25666,0 -0.404799,0.163642 -0.148139,0.163642 -0.148139,0.446139 v 1.090373 h -0.318671 v -2.680284 h 0.318671 v 1.050754 q 0.113688,-0.173977 0.266995,-0.260105 0.155029,-0.08613 0.356567,-0.08613 0.332452,0 0.502984,0.206706 0.170533,0.204983 0.170533,0.604614 z"
         style="font-style:normal;font-variant:normal;font-weight:normal;font-stretch:normal;font-size:3.52777767px;font-family:sans-serif;-inkscape-font-specification:sans-serif;stroke-width:0.26458332"
         id="path103"
         inkscape:connector-curvature="0" />
      <path
         d="m 17.705102,42.770803 q -0.0534,-0.03101 -0.117133,-0.04479 -0.06201,-0.0155 -0.137804,-0.0155 -0.268717,0 -0.413411,0.1757 -0.142972,0.173977 -0.142972,0.501261 v 1.016303 h -0.318671 v -1.929253 h 0.318671 v 0.299723 q 0.09991,-0.1757 0.260105,-0.260105 0.160197,-0.08613 0.389296,-0.08613 0.03273,0 0.07235,0.0052 0.03962,0.0034 0.08785,0.01206 z"
         style="font-style:normal;font-variant:normal;font-weight:normal;font-stretch:normal;font-size:3.52777767px;font-family:sans-serif;-inkscape-font-specification:sans-serif;stroke-width:0.26458332"
         id="path105"
         inkscape:connector-curvature="0" />
      <path
         d="m 18.712793,42.696733 q -0.254937,0 -0.403076,0.199816 -0.14814,0.198093 -0.14814,0.544325 0,0.346232 0.146417,0.546048 0.148139,0.198093 0.404799,0.198093 0.253214,0 0.401353,-0.199816 0.148139,-0.199816 0.148139,-0.544325 0,-0.342787 -0.148139,-0.542603 -0.148139,-0.201538 -0.401353,-0.201538 z m 0,-0.268717 q 0.413411,0 0.6494,0.268717 0.235989,0.268718 0.235989,0.744141 0,0.473701 -0.235989,0.744141 -0.235989,0.268717 -0.6494,0.268717 -0.415134,0 -0.651123,-0.268717 -0.234267,-0.27044 -0.234267,-0.744141 0,-0.475423 0.234267,-0.744141 0.235989,-0.268717 0.651123,-0.268717 z"
         style="font-style:normal;font-variant:normal;font-weight:normal;font-stretch:normal;font-size:3.52777767px;font-family:sans-serif;-inkscape-font-specification:sans-serif;stroke-width:0.26458332"
         id="path107"
         inkscape:connector-curvature="0" />
      <path
         d="m 21.623898,42.844872 q 0.118856,-0.213595 0.284221,-0.315226 0.165364,-0.10163 0.389295,-0.10163 0.301446,0 0.465088,0.211873 0.163642,0.210151 0.163642,0.599447 v 1.164442 h -0.318671 v -1.154107 q 0,-0.27733 -0.09818,-0.411689 -0.09819,-0.134358 -0.299724,-0.134358 -0.246324,0 -0.389295,0.163642 -0.142972,0.163642 -0.142972,0.446139 v 1.090373 h -0.318671 v -1.154107 q 0,-0.279053 -0.09819,-0.411689 -0.09819,-0.134358 -0.303169,-0.134358 -0.242879,0 -0.385851,0.165364 -0.142971,0.163642 -0.142971,0.444417 v 1.090373 h -0.318671 v -1.929253 h 0.318671 v 0.299723 q 0.108521,-0.177422 0.260105,-0.261827 0.151584,-0.08441 0.360012,-0.08441 0.210151,0 0.356568,0.106798 0.148139,0.106798 0.218763,0.310058 z"
         style="font-style:normal;font-variant:normal;font-weight:normal;font-stretch:normal;font-size:3.52777767px;font-family:sans-serif;-inkscape-font-specification:sans-serif;stroke-width:0.26458332"
         id="path109"
         inkscape:connector-curvature="0" />
      <path
         d="m 24.436818,43.433984 q -0.384128,0 -0.532267,0.08785 -0.148139,0.08785 -0.148139,0.299723 0,0.16881 0.110243,0.268717 0.111965,0.09819 0.303168,0.09819 0.26355,0 0.422024,-0.186036 0.160197,-0.187757 0.160197,-0.497816 v -0.07062 z m 0.632175,-0.130914 v 1.100708 h -0.316949 v -0.292833 q -0.10852,0.1757 -0.27044,0.260105 -0.161919,0.08268 -0.396186,0.08268 -0.296278,0 -0.471978,-0.165365 -0.173977,-0.167087 -0.173977,-0.446139 0,-0.325562 0.217041,-0.490927 0.218764,-0.165364 0.651123,-0.165364 h 0.444417 v -0.03101 q 0,-0.218764 -0.144694,-0.337619 -0.142971,-0.120579 -0.403076,-0.120579 -0.165364,0 -0.322116,0.03962 -0.156752,0.03962 -0.301446,0.118856 V 42.56237 q 0.173977,-0.06718 0.337619,-0.09991 0.163642,-0.03445 0.318672,-0.03445 0.418579,0 0.625284,0.217041 0.206706,0.217041 0.206706,0.658013 z"
         style="font-style:normal;font-variant:normal;font-weight:normal;font-stretch:normal;font-size:3.52777767px;font-family:sans-serif;-inkscape-font-specification:sans-serif;stroke-width:0.26458332"
         id="path111"
         inkscape:connector-curvature="0" />
      <path
         d="m 26.037066,41.926754 v 0.547771 h 0.652845 v 0.246324 h -0.652845 v 1.047309 q 0,0.235989 0.06373,0.303168 0.06546,0.06718 0.26355,0.06718 h 0.325561 v 0.265272 H 26.36435 q -0.366903,0 -0.506429,-0.136081 -0.139527,-0.137804 -0.139527,-0.499539 v -1.047309 h -0.232543 v -0.246324 h 0.232543 v -0.547771 z"
         style="font-style:normal;font-variant:normal;font-weight:normal;font-stretch:normal;font-size:3.52777767px;font-family:sans-serif;-inkscape-font-specification:sans-serif;stroke-width:0.26458332"
         id="path113"
         inkscape:connector-curvature="0" />
      <path
         d="m 27.10849,42.474525 h 0.316949 v 1.929253 H 27.10849 Z m 0,-0.751031 h 0.316949 v 0.401353 H 27.10849 Z"
         style="font-style:normal;font-variant:normal;font-weight:normal;font-stretch:normal;font-size:3.52777767px;font-family:sans-serif;-inkscape-font-specification:sans-serif;stroke-width:0.26458332"
         id="path115"
         inkscape:connector-curvature="0" />
      <path
         d="m 29.47527,42.548594 v 0.296278 q -0.134359,-0.07407 -0.27044,-0.110243 -0.134358,-0.0379 -0.272162,-0.0379 -0.308336,0 -0.478869,0.196371 -0.170532,0.194648 -0.170532,0.54777 0,0.353122 0.170532,0.549493 0.170533,0.194648 0.478869,0.194648 0.137804,0 0.272162,-0.03617 0.136081,-0.0379 0.27044,-0.111966 v 0.292834 q -0.132636,0.06201 -0.275607,0.09302 -0.141249,0.03101 -0.301446,0.03101 -0.435805,0 -0.692464,-0.273885 -0.25666,-0.273885 -0.25666,-0.738973 0,-0.471978 0.258382,-0.742418 0.260105,-0.27044 0.711412,-0.27044 0.146417,0 0.285943,0.03101 0.139527,0.02928 0.27044,0.08957 z"
         style="font-style:normal;font-variant:normal;font-weight:normal;font-stretch:normal;font-size:3.52777767px;font-family:sans-serif;-inkscape-font-specification:sans-serif;stroke-width:0.26458332"
         id="path117"
         inkscape:connector-curvature="0" />
    </g>
    <g
       aria-label="Minor"
       style="font-style:normal;font-variant:normal;font-weight:normal;font-stretch:normal;font-size:3.52777767px;line-height:1.25;font-family:sans-serif;-inkscape-font-specification:sans-serif;letter-spacing:0px;word-spacing:0px;display:inline;fill:#000000;fill-opacity:1;stroke:none;stroke-width:0.26458332"
       id="text113"
       transform="translate(0,42.333333)">
      <path
         d="m 13.494267,36.491316 h 0.518487 l 0.656291,1.750109 0.659735,-1.750109 h 0.518487 v 2.571764 h -0.339342 v -2.25826 l -0.66318,1.763889 H 14.495067 L 13.831886,36.80482 v 2.25826 h -0.337619 z"
         style="font-style:normal;font-variant:normal;font-weight:normal;font-stretch:normal;font-size:3.52777767px;font-family:sans-serif;-inkscape-font-specification:sans-serif;stroke-width:0.26458332"
         id="path120"
         inkscape:connector-curvature="0" />
      <path
         d="M 16.525951,37.133826 H 16.8429 v 1.929254 h -0.316949 z m 0,-0.75103 H 16.8429 v 0.401353 h -0.316949 z"
         style="font-style:normal;font-variant:normal;font-weight:normal;font-stretch:normal;font-size:3.52777767px;font-family:sans-serif;-inkscape-font-specification:sans-serif;stroke-width:0.26458332"
         id="path122"
         inkscape:connector-curvature="0" />
      <path
         d="m 19.10805,37.898638 v 1.164442 h -0.316949 v -1.154107 q 0,-0.273885 -0.106798,-0.409966 -0.106798,-0.136082 -0.320394,-0.136082 -0.256659,0 -0.404798,0.163642 -0.148139,0.163642 -0.148139,0.44614 V 39.06308 H 17.4923 v -1.929254 h 0.318672 v 0.299724 q 0.113688,-0.173978 0.266995,-0.260105 0.155029,-0.08613 0.356567,-0.08613 0.332452,0 0.502984,0.206705 0.170532,0.204984 0.170532,0.604615 z"
         style="font-style:normal;font-variant:normal;font-weight:normal;font-stretch:normal;font-size:3.52777767px;font-family:sans-serif;-inkscape-font-specification:sans-serif;stroke-width:0.26458332"
         id="path124"
         inkscape:connector-curvature="0" />
      <path
         d="m 20.491256,37.356035 q -0.254937,0 -0.403077,0.199816 -0.148139,0.198093 -0.148139,0.544325 0,0.346232 0.146417,0.546047 0.148139,0.198093 0.404799,0.198093 0.253214,0 0.401353,-0.199815 0.148139,-0.199816 0.148139,-0.544325 0,-0.342787 -0.148139,-0.542603 -0.148139,-0.201538 -0.401353,-0.201538 z m 0,-0.268717 q 0.413411,0 0.6494,0.268717 0.235989,0.268718 0.235989,0.744141 0,0.4737 -0.235989,0.74414 -0.235989,0.268718 -0.6494,0.268718 -0.415134,0 -0.651123,-0.268718 -0.234267,-0.27044 -0.234267,-0.74414 0,-0.475423 0.234267,-0.744141 0.235989,-0.268717 0.651123,-0.268717 z"
         style="font-style:normal;font-variant:normal;font-weight:normal;font-stretch:normal;font-size:3.52777767px;font-family:sans-serif;-inkscape-font-specification:sans-serif;stroke-width:0.26458332"
         id="path126"
         inkscape:connector-curvature="0" />
      <path
         d="m 23.018233,37.430105 q -0.0534,-0.03101 -0.117133,-0.04479 -0.06201,-0.0155 -0.137804,-0.0155 -0.268717,0 -0.413411,0.1757 -0.142972,0.173978 -0.142972,0.501262 v 1.016303 h -0.318671 v -1.929254 h 0.318671 v 0.299724 q 0.09991,-0.1757 0.260105,-0.260105 0.160197,-0.08613 0.389296,-0.08613 0.03273,0 0.07235,0.0052 0.03962,0.0034 0.08785,0.01206 z"
         style="font-style:normal;font-variant:normal;font-weight:normal;font-stretch:normal;font-size:3.52777767px;font-family:sans-serif;-inkscape-font-specification:sans-serif;stroke-width:0.26458332"
         id="path128"
         inkscape:connector-curvature="0" />
    </g>
    <g
       transform="translate(-0.4233295,6.606829)"
       aria-label="Scale"
       style="font-style:normal;font-variant:normal;font-weight:bold;font-stretch:normal;font-size:3.52777767px;line-height:1.25;font-family:sans-serif;-inkscape-font-specification:'sans-serif Bold';letter-spacing:0px;word-spacing:0px;display:inline;fill:#000000;fill-opacity:1;stroke:none;stroke-width:0.26458332"
       id="text184">
      <path
         d="m 12.263609,15.942528 v 0.544326 q -0.211874,-0.09474 -0.413412,-0.142972 -0.201538,-0.04823 -0.380683,-0.04823 -0.237712,0 -0.3514,0.06546 -0.113688,0.06546 -0.113688,0.20326 0,0.103353 0.07579,0.16192 0.07752,0.05684 0.279053,0.09819 l 0.282498,0.05684 q 0.428914,0.08613 0.609782,0.261827 0.180867,0.1757 0.180867,0.499539 0,0.425469 -0.253214,0.633898 -0.251492,0.206705 -0.769979,0.206705 -0.244602,0 -0.490926,-0.04651 -0.246325,-0.04651 -0.492649,-0.137804 v -0.559828 q 0.246324,0.130913 0.475423,0.198093 0.230822,0.06546 0.444418,0.06546 0.217041,0 0.332451,-0.07235 0.115411,-0.07235 0.115411,-0.206706 0,-0.120579 -0.07924,-0.186035 -0.07752,-0.06546 -0.311781,-0.117134 l -0.25666,-0.05684 q -0.385851,-0.08268 -0.564996,-0.263549 -0.177422,-0.180868 -0.177422,-0.487481 0,-0.384129 0.248047,-0.590834 0.248047,-0.206706 0.713135,-0.206706 0.211873,0 0.435804,0.03273 0.223931,0.03101 0.463366,0.09474 z"
         style="font-size:3.52777767px;stroke-width:0.26458332"
         id="path186"
         inkscape:connector-curvature="0" />
      <path
         d="m 14.547707,16.564368 v 0.502984 q -0.125746,-0.08613 -0.253215,-0.127468 -0.125746,-0.04134 -0.261827,-0.04134 -0.258382,0 -0.403076,0.151585 -0.142972,0.149861 -0.142972,0.420301 0,0.27044 0.142972,0.422024 0.144694,0.149862 0.403076,0.149862 0.144694,0 0.273885,-0.04306 0.130914,-0.04306 0.241157,-0.127468 v 0.504706 q -0.144694,0.0534 -0.294556,0.07924 -0.148139,0.02756 -0.298001,0.02756 -0.521931,0 -0.816487,-0.266995 -0.294556,-0.268717 -0.294556,-0.745863 0,-0.477145 0.294556,-0.74414 0.294556,-0.268718 0.816487,-0.268718 0.151585,0 0.298001,0.02756 0.148139,0.02584 0.294556,0.07924 z"
         style="font-size:3.52777767px;stroke-width:0.26458332"
         id="path188"
         inkscape:connector-curvature="0" />
      <path
         d="m 15.948138,17.565168 q -0.192925,0 -0.291111,0.06546 -0.09646,0.06546 -0.09646,0.192926 0,0.117133 0.07751,0.184312 0.07924,0.06546 0.218764,0.06546 0.173977,0 0.292833,-0.124023 0.118856,-0.125746 0.118856,-0.313504 v -0.07062 z m 0.942234,-0.232544 v 1.100708 h -0.62184 V 18.14739 q -0.124024,0.175699 -0.279053,0.256659 -0.155029,0.07924 -0.377238,0.07924 -0.299723,0 -0.487481,-0.173977 -0.186035,-0.1757 -0.186035,-0.454753 0,-0.339341 0.232544,-0.497816 0.234266,-0.158474 0.733805,-0.158474 h 0.363458 v -0.04823 q 0,-0.146416 -0.115411,-0.213596 -0.115411,-0.0689 -0.360012,-0.0689 -0.198093,0 -0.368626,0.03962 -0.170532,0.03962 -0.316948,0.118856 v -0.470256 q 0.198093,-0.04823 0.397908,-0.07235 0.199816,-0.02584 0.399631,-0.02584 0.521932,0 0.752754,0.206706 0.232544,0.204983 0.232544,0.668348 z"
         style="font-size:3.52777767px;stroke-width:0.26458332"
         id="path190"
         inkscape:connector-curvature="0" />
      <path
         d="m 17.467426,15.753048 h 0.616672 v 2.680284 h -0.616672 z"
         style="font-size:3.52777767px;stroke-width:0.26458332"
         id="path192"
         inkscape:connector-curvature="0" />
      <path
         d="m 20.605907,17.463538 v 0.1757 h -1.441772 q 0.02239,0.217041 0.156751,0.325561 0.134359,0.108521 0.375516,0.108521 0.194648,0 0.397908,-0.05684 0.204984,-0.05857 0.420302,-0.1757 v 0.475423 q -0.218764,0.08268 -0.437527,0.124024 -0.218764,0.04306 -0.437527,0.04306 -0.523655,0 -0.814765,-0.265272 -0.289388,-0.266995 -0.289388,-0.747586 0,-0.471978 0.28422,-0.742418 0.285943,-0.27044 0.785482,-0.27044 0.454752,0 0.726915,0.273885 0.273885,0.273885 0.273885,0.732082 z M 19.97201,17.258555 q 0,-0.1757 -0.103353,-0.282498 -0.101631,-0.10852 -0.266995,-0.10852 -0.179145,0 -0.291111,0.10163 -0.111965,0.09991 -0.139526,0.289388 z"
         style="font-size:3.52777767px;stroke-width:0.26458332"
         id="path194"
         inkscape:connector-curvature="0" />
    </g>
  </g>
  <g
     inkscape:groupmode="layer"
     id="layer2"
     inkscape:label="components"
     style="display:none">
    <circle
       style="display:inline;opacity:1;vector-effect:none;fill:#ff0000;fill-opacity:1;fill-rule:evenodd;stroke:none;stroke-width:1;stroke-linecap:butt;stroke-linejoin:miter;stroke-miterlimit:4;stroke-dasharray:none;stroke-dashoffset:0;stroke-opacity:1;paint-order:normal"
       id="path4954"
       cx="7.5670834"
       cy="80.36776"
       r="4"
       inkscape:label="type">
      <desc
         id="desc99">One volt per octave</desc>
      <title
         id="title97">Title</title>
    </circle>
    <circle
       r="4"
       cy="112.00806"
       cx="8.2599611"
       id="circle4956"
       style="display:inline;opacity:1;vector-effect:none;fill:#00ff00;fill-opacity:1;fill-rule:evenodd;stroke:none;stroke-width:1;stroke-linecap:butt;stroke-linejoin:miter;stroke-miterlimit:4;stroke-dasharray:none;stroke-dashoffset:0;stroke-opacity:1;paint-order:normal"
       inkscape:label="cv" />
    <circle
       style="display:inline;opacity:1;vector-effect:none;fill:#0000ff;fill-opacity:1;fill-rule:evenodd;stroke:none;stroke-width:1;stroke-linecap:butt;stroke-linejoin:miter;stroke-miterlimit:4;stroke-dasharray:none;stroke-dashoffset:0;stroke-opacity:1;paint-order:normal"
       id="circle4958"
       cx="22.225"
       cy="112.00806"
       r="4"
       inkscape:label="cv"
       inkscape:transform-center-x="-0.53453914"
       inkscape:transform-center-y="1.870887" />
    <circle
       style="display:inline;opacity:1;vector-effect:none;fill:#ff0000;fill-opacity:1;fill-rule:evenodd;stroke:none;stroke-width:1;stroke-linecap:butt;stroke-linejoin:miter;stroke-miterlimit:4;stroke-dasharray:none;stroke-dashoffset:0;stroke-opacity:1;paint-order:normal"
       id="path4954-3"
       cx="15.504583"
       cy="61.074978"
       r="4"
       inkscape:label="on">
      <desc
         id="desc103">Enable/disable the glide</desc>
      <title
         id="title101">title</title>
    </circle>
    <circle
       style="display:inline;opacity:1;vector-effect:none;fill:#ff00ff;fill-opacity:1;fill-rule:evenodd;stroke:none;stroke-width:0.33854231;stroke-linecap:butt;stroke-linejoin:miter;stroke-miterlimit:4;stroke-dasharray:none;stroke-dashoffset:0;stroke-opacity:1;paint-order:normal"
       id="path4954-3-3-6"
       cx="6.8791666"
       cy="61.074978"
       r="1.3541692"
       inkscape:label="enabled" />
    <circle
       style="display:inline;opacity:1;vector-effect:none;fill:#ff0000;fill-opacity:1;fill-rule:evenodd;stroke:none;stroke-width:1;stroke-linecap:butt;stroke-linejoin:miter;stroke-miterlimit:4;stroke-dasharray:none;stroke-dashoffset:0;stroke-opacity:1;paint-order:normal"
       id="path4954-36"
       cx="15.504583"
       cy="38.012501"
       r="4"
       inkscape:label="scale">
      <desc
         id="desc99-7">One volt per octave</desc>
      <title
         id="title97-5">Title</title>
    </circle>
  </g>
</svg>
